<svg width="138" height="30" viewBox="0 0 138 30" fill="none" xmlns="http://www.w3.org/2000/svg">
<path fill-rule="evenodd" clip-rule="evenodd" d="M137.61 29.6431C137.61 29.6431 137.448 26.8838 137.448 23.5475L137.455 18.4506C137.416 17.1272 137.249 15.3454 136.683 14.1688C135.684 12.0927 133.405 10.5764 130.251 10.4187C127.097 10.261 124.479 12.3183 123.605 13.5239L123.611 12.8094C123.611 11.5828 123.469 10.8239 123.469 10.8239H117.092C117.266 15.9076 117.479 24.1519 117.26 29.6431H124.319L124.331 21.4386C124.331 17.8541 125.487 16.152 127.739 16.152C129.458 16.152 130.4 17.2771 130.4 20.4143L130.421 29.6431H137.61ZM42.3148 29.9827C45.142 30.1904 47.6147 28.4704 48.7094 27.2594C48.7094 27.2594 48.6743 29.0653 49.0272 29.6462H55.4038C55.2297 24.5633 55.0158 16.3198 55.2359 10.8278H48.2394L48.2331 19.0307C48.2331 22.2616 47.1455 24.319 44.8945 24.319C43.1752 24.319 42.3187 23.1938 42.3187 20.0551L42.3148 10.827H35.2112L35.1956 22.018C35.1956 27.9059 38.3328 29.6884 42.3148 29.9827ZM108.875 29.6509C108.875 29.6509 108.737 28.9537 108.737 27.2766C106.608 29.9421 103.043 29.83 102.843 29.8237C102.837 29.8235 102.834 29.8235 102.834 29.8235C99.6022 29.9148 95.9194 27.9699 95.9959 23.7888C96.095 18.4451 101.596 17.605 105.983 17.605C107.346 17.605 108.288 17.6386 108.288 17.6386C108.153 14.9878 105.604 14.8676 103.796 14.8676C101.405 14.8676 98.314 16.5463 98.314 16.5463V11.9115C99.0238 11.3837 103.792 9.67613 108.285 10.5702C112.645 11.4368 113.76 13.8832 114.283 15.0292C114.299 15.0643 114.314 15.0981 114.329 15.1307C114.82 16.1956 114.803 19.8715 114.802 20.1506V20.166C114.805 26.4286 114.974 29.6509 114.974 29.6509H108.875ZM102.721 23.6069C102.576 20.9702 107.686 21.3161 108.334 21.5511C108.365 26.0195 102.883 26.5333 102.721 23.6069Z" fill="#E9E9E9"/>
<path fill-rule="evenodd" clip-rule="evenodd" d="M84.9702 16.1945C86.463 16.1945 87.5671 17.2868 87.5671 20.4279L87.5678 29.6419H94.6816V18.8405C94.6816 12.0509 90.6496 10.5963 87.4991 10.4385C84.9265 10.3097 82.8066 11.6886 81.6308 12.7301L81.6097 5.32908H74.5686L74.5827 29.6427H81.573L81.5605 21.4523C81.5605 17.863 82.7176 16.1945 84.9702 16.1945ZM63.7782 19.9977C63.7782 15.1068 69.9276 14.896 72.4683 16.9386L72.943 11.6324C69.385 9.49924 56.6458 8.92693 56.6458 20.0999C56.6458 31.2659 69.5661 30.6327 73.1437 28.7783L72.961 23.4393C70.4406 25.2968 63.7782 25.4475 63.7782 19.9977ZM0.964315 29.6419L4.45831 19.4706L0.398249 19.4659C0.356334 18.8633 0.472613 18.2602 0.735562 17.7164C0.998511 17.1725 1.399 16.7069 1.89735 16.3655C1.3816 16.0094 0.972021 15.5202 0.712173 14.9499C0.452324 14.3797 0.35193 13.7496 0.421672 13.1268L6.61874 13.1299L11.1105 0.000244141H25.3895L27.2032 5.32986C27.5476 5.26115 27.9832 5.24554 28.3892 5.24554C30.8002 5.24554 31.6819 6.41251 32.0855 6.94678C32.1541 7.03746 32.2088 7.10991 32.2549 7.15534C32.9014 7.79323 33.3191 7.96734 34.0616 7.96422C35.2625 7.95954 36.24 8.30621 36.7748 8.52014C36.9825 8.59666 36.9841 8.66459 36.7756 8.74188C35.7575 9.20792 35.0689 9.27171 34.5152 9.323C34.0189 9.36898 33.631 9.40491 33.2114 9.71162C32.4868 10.223 32.2533 11.0952 32.1792 11.4668C32.105 11.8385 31.5085 14.3253 31.3781 14.8086C30.0406 19.2184 26.7145 21.0377 25.5261 21.6022L25.719 22.212C28.9225 20.6855 30.4427 18.4166 31.2352 16.8855C31.2368 16.8823 35.5912 29.6419 35.5912 29.6419H19.7803L17.4232 21.7942H12.0795L9.61928 29.6419H0.964315ZM25.4423 28.8478L23.4685 22.3314C24.0501 22.1846 24.6248 21.9941 25.0378 21.813L27.1803 28.8478H25.4423ZM28.6333 8.77L30.0872 8.0509C30.2109 8.36659 30.2236 8.71501 30.1231 9.03887C30.0226 9.36273 29.8149 9.64274 29.5342 9.83288C29.2534 10.0231 28.9163 10.112 28.5782 10.0851C28.2402 10.0583 27.9214 9.91718 27.6742 9.68504C27.427 9.45293 27.2661 9.14361 27.2181 8.80794C27.17 8.47228 27.2376 8.13024 27.4097 7.83807C27.5818 7.5459 27.8482 7.32099 28.1651 7.20032C28.482 7.07965 28.8305 7.0704 29.1533 7.17409L28.4787 8.62009C28.41 8.77625 28.4795 8.8434 28.6333 8.77ZM26.5872 5.12997C26.6275 5.12181 26.6694 5.12973 26.704 5.15205C26.7386 5.17436 26.763 5.20931 26.7722 5.24943C26.7795 5.28977 26.7707 5.33139 26.7476 5.36528C26.7246 5.39917 26.6891 5.42262 26.6488 5.43057C24.2768 6.00289 23.6264 8.00091 23.7115 9.27202C23.7248 9.46643 23.7545 9.78498 23.8013 9.92478C20.0661 11.7034 16.8297 13.735 13.114 18.1324L22.399 18.1292C21.8416 18.4634 21.2255 18.9662 20.5423 19.5503L21.4215 22.6461L23.2915 28.8377L21.5136 28.8252L18.8457 20.0859H8.04909C8.42074 19.2075 9.05083 18.3518 9.58957 17.8411L2.69995 17.8458C2.78662 17.0635 3.42452 16.3881 4.38566 16.3881C4.41611 16.3881 4.44031 16.3639 4.44031 16.3334C4.44031 16.303 4.41611 16.2788 4.38566 16.2788C3.45809 16.2788 2.82566 15.6791 2.7062 14.8515H14.4819C16.7493 12.7332 20.1613 10.7173 22.3194 9.73968C22.157 7.49418 23.4453 5.42511 26.5872 5.12997ZM18.0995 2.48627L15.0412 12.3616C16.7183 10.9882 20.1436 9.16352 20.1444 9.1643L18.0995 2.48627Z" fill="#E9E9E9"/>
</svg>
