<svg width="200" height="52" viewBox="0 0 200 52" fill="none" xmlns="http://www.w3.org/2000/svg">
<path d="M74.8687 6.1313L57.8424 34.5861C53.2943 42.0496 58.7754 51.3791 67.1719 51.3791H101.458C110.087 51.3791 115.335 42.0496 110.787 34.5861L93.6442 6.1313C89.3293 -1.21564 78.9503 -1.21564 74.8687 6.1313ZM91.6617 7.29748L108.688 35.8689C111.02 39.9505 108.338 45.0817 103.44 45.0817H69.1544C64.4897 45.0817 61.5742 39.9505 63.9066 35.8689L81.2827 7.29748C83.7317 3.33247 89.3293 3.33247 91.6617 7.29748Z" fill="#E9E9E9"/>
<path d="M84.8979 13.3621L73.4693 32.2542C71.7201 35.1696 73.8192 38.9014 77.2011 38.9014H100.058C103.44 38.9014 105.539 35.1696 103.79 32.2542L92.4781 13.2454C90.7288 10.33 86.6472 10.33 84.8979 13.3621ZM92.2448 17.7935L99.7081 30.1551C100.291 31.3212 99.4752 32.7207 98.309 32.7207H83.4985C82.0991 32.7207 81.3994 31.3212 82.0991 30.1551L89.5626 17.7935C89.9125 16.6274 91.6618 16.6274 92.2448 17.7935Z" fill="#E9E9E9"/>
<path d="M45.3644 35.985C42.7988 35.985 40.8163 35.1687 39.3002 33.6527C37.7842 32.1366 36.9679 30.1541 36.9679 27.5885C36.9679 25.0229 37.7842 23.0404 39.3002 21.5244C40.8163 20.0084 43.032 19.192 45.5976 19.192C47.1137 19.192 48.7463 19.5419 50.1457 20.3582C51.5451 21.1745 52.4781 22.1075 53.0612 23.5069L50.379 25.0229C49.7959 24.2066 49.2128 23.5069 48.3965 23.0404C47.5801 22.4574 46.6472 22.2241 45.7142 22.2241C44.1982 22.2241 43.032 22.8072 41.7492 23.7401C40.8163 24.6731 40.2332 26.0725 40.2332 27.7052C40.2332 29.3378 40.8163 30.3874 41.7492 31.6702C42.6822 32.6031 43.8483 33.1862 45.481 33.1862C46.4139 33.1862 47.4635 32.953 48.1632 32.3699C48.9795 31.7868 49.6793 31.2037 50.1457 30.3874L52.8279 31.9034C52.2448 33.0696 51.3119 34.2358 49.9125 34.8189C48.5131 35.6352 47.1137 35.985 45.3644 35.985ZM27.5218 35.985C24.9562 35.985 22.9737 35.1687 21.4577 33.6527C19.9416 32.1366 19.1253 30.1541 19.1253 27.5885C19.1253 25.0229 19.9416 23.0404 21.4577 21.5244C22.9737 20.0084 25.1895 19.192 27.7551 19.192C29.2711 19.192 30.9037 19.5419 32.3032 20.3582C33.7026 21.1745 34.6355 22.1075 35.2186 23.5069L32.5364 25.0229C31.9533 24.2066 31.3702 23.5069 30.5539 23.0404C29.7376 22.4574 28.8046 22.2241 27.8717 22.2241C26.3556 22.2241 25.1895 22.8072 23.9067 23.7401C22.9737 24.6731 22.3906 26.0725 22.3906 27.7052C22.3906 29.3378 22.9737 30.3874 23.9067 31.6702C24.8396 32.6031 26.0058 33.1862 27.6384 33.1862C28.5714 33.1862 29.6209 32.953 30.3207 32.3699C31.0204 31.7868 31.8367 31.2037 32.3032 30.3874L34.9854 31.9034C34.4023 33.0696 33.4693 34.2358 32.0699 34.8189C30.6705 35.6352 29.1545 35.985 27.5218 35.985ZM4.54802 31.4369C5.48096 32.3699 6.64714 32.953 8.27979 32.953C9.79586 32.953 10.9621 32.3699 12.0116 31.4369C12.9446 30.504 13.411 29.1046 13.411 27.4719C13.411 25.8393 13.0612 24.7897 12.0116 23.5069C11.0787 22.574 9.91246 21.9909 8.27979 21.9909C6.64714 21.9909 5.59758 22.574 4.54802 23.5069C3.61507 24.6731 3.1486 25.8393 3.1486 27.4719C3.1486 29.1046 3.49845 30.2708 4.54802 31.4369ZM8.62965 19.192C10.9621 19.192 12.9446 20.0084 14.344 21.7576C15.86 23.2737 16.6763 25.4894 16.6763 27.8218C16.6763 30.1541 15.86 32.1366 14.344 33.8859C12.8279 35.402 10.8454 36.2183 8.62965 36.2183C6.41391 36.2183 4.54802 35.2853 3.1486 33.5361V35.6352H-9.15527e-05V13.1279H3.38184V21.8743C4.66463 20.125 6.41391 19.192 8.62965 19.192Z" fill="#E9E9E9"/>
<path d="M182.041 35.9856C180.641 35.9856 179.475 35.7524 178.542 35.1693C177.376 34.5862 176.56 33.7699 175.976 32.6037L178.076 30.6212C178.425 31.4375 179.242 32.0206 179.825 32.3705C180.641 32.7203 181.341 32.9535 182.157 32.9535C182.974 32.9535 183.557 32.7203 184.14 32.3705C184.723 32.0206 184.956 31.5541 184.956 30.971C184.956 30.1547 184.606 29.5716 183.557 29.2218C183.323 28.9885 182.624 28.8719 181.574 28.4054C180.641 28.0556 179.825 27.5891 179.592 27.4725C177.842 26.5396 177.026 25.3734 177.026 23.5075C177.026 22.1081 177.609 21.1751 178.542 20.1256C179.475 19.3092 180.874 18.7261 182.507 18.7261C184.839 18.7261 186.589 19.5425 187.755 21.2917L185.772 23.2742C184.839 22.1081 183.673 21.525 182.274 21.525C181.691 21.525 181.108 21.7582 180.758 22.1081C180.408 22.4579 180.175 22.9244 180.175 23.2742C180.175 24.0906 180.525 24.6737 181.574 25.0235L183.09 25.8398C184.023 26.1897 184.839 26.6562 185.423 26.7728C187.172 27.7057 188.105 29.1051 188.105 30.8544C188.105 32.2538 187.522 33.42 186.355 34.353C185.189 35.6358 183.79 35.9856 182.041 35.9856ZM166.181 21.8748C165.014 21.8748 163.848 22.2247 163.032 23.041C162.216 23.8573 161.632 24.7903 161.516 25.9565H170.845C170.612 24.7903 170.262 23.6241 169.329 23.041C168.28 22.3413 167.347 21.8748 166.181 21.8748ZM173.994 27.3559C173.994 27.939 173.994 28.2888 173.761 28.8719H161.283C161.516 30.2713 162.099 31.2043 163.032 32.0206C163.965 32.8369 165.131 33.1868 166.764 33.1868C167.697 33.1868 168.746 32.9535 169.679 32.8369C170.612 32.4871 171.662 32.0206 172.245 31.6707L173.644 34.0031C171.662 35.5191 169.329 36.1022 166.647 36.1022C163.965 36.1022 161.749 35.2859 160.233 33.5366C158.834 32.0206 158.134 29.8049 158.134 27.4725C158.134 25.1401 158.95 22.9244 160.466 21.4084C161.982 19.8923 163.965 19.076 166.297 19.076C168.63 19.076 170.612 19.8923 172.011 21.1751C173.178 22.9244 173.994 24.7903 173.994 27.3559ZM148.804 31.0877L153.469 19.5425H156.968L149.971 35.5191H147.638L140.641 19.5425H144.373L148.804 31.0877ZM127.697 35.6358H124.431V19.5425H127.58V21.8748C127.93 21.0585 128.746 20.3588 129.679 19.8923C130.612 19.5425 131.662 19.076 132.828 19.076C134.577 19.076 136.093 19.6591 137.376 20.8253C138.542 21.9914 139.125 23.7407 139.125 25.9565V35.7524H135.86V27.006C135.86 25.6066 135.51 24.4404 134.927 23.6241C134.111 22.8078 133.411 22.4579 132.245 22.4579C131.078 22.4579 130.146 22.8078 129.096 23.8573C128.163 24.7903 127.93 25.8398 127.93 27.2393L127.697 35.6358ZM120 35.6358H116.734V19.5425H120V35.6358ZM118.484 17.4433C117.901 17.4433 117.318 17.2101 116.968 16.8603C116.618 16.5104 116.385 15.9273 116.385 15.3442C116.385 14.7611 116.618 14.178 116.968 13.8282C117.318 13.4783 117.901 13.2451 118.484 13.2451C119.067 13.2451 119.65 13.4783 120 13.8282C120.35 14.178 120.583 14.7611 120.583 15.3442C120.583 15.9273 120.35 16.5104 120 16.8603C119.65 17.2101 119.067 17.4433 118.484 17.4433Z" fill="#E9E9E9"/>
<path d="M198.834 32.0201L200 34.5857C198.834 35.5187 197.318 35.9851 195.452 35.9851C193.702 35.9851 192.303 35.402 191.487 34.4691C190.67 33.5361 190.087 32.1367 190.087 30.3875V19.6586V13.9443H193.353V19.6586H198.834V22.3408H193.586V29.921C193.586 31.9035 194.402 33.0697 196.151 33.0697C196.851 33.0697 197.901 32.8364 198.834 32.0201Z" fill="#E9E9E9"/>
</svg>
