<svg width="24" height="24" viewBox="0 0 24 24" fill="none" xmlns="http://www.w3.org/2000/svg">
<g clip-path="url(#clip0_242_1182)">
<path d="M20.3168 5.09256C18.7868 4.40256 17.1468 3.89256 15.4319 3.60255C15.4165 3.59963 15.4008 3.60151 15.3866 3.60797C15.3725 3.61441 15.3607 3.6251 15.3528 3.63855C15.1428 4.00756 14.9088 4.48855 14.7449 4.86855C12.9259 4.59679 11.0767 4.59679 9.25784 4.86855C9.07518 4.44741 8.8692 4.03679 8.64085 3.63855C8.63311 3.62493 8.6214 3.614 8.60729 3.60722C8.59316 3.60043 8.57732 3.5981 8.56184 3.60056C6.84785 3.89055 5.20786 4.40056 3.67686 5.09155C3.66368 5.09708 3.65252 5.1065 3.64486 5.11855C0.532869 9.69354 -0.320129 14.1556 0.0988701 18.5615C0.100036 18.5723 0.103386 18.5827 0.108715 18.5922C0.114044 18.6017 0.121242 18.61 0.12987 18.6165C1.94626 19.939 3.97219 20.9464 6.12286 21.5965C6.13784 21.6011 6.15389 21.6011 6.16886 21.5964C6.18385 21.5919 6.19709 21.5827 6.20686 21.5705C6.66886 20.9505 7.08085 20.2955 7.43285 19.6075C7.45385 19.5675 7.43386 19.5195 7.39186 19.5035C6.74586 19.2603 6.11994 18.9666 5.51986 18.6255C5.50907 18.6193 5.49998 18.6106 5.49341 18.6001C5.48684 18.5896 5.48298 18.5776 5.48219 18.5652C5.4814 18.5527 5.48369 18.5404 5.48887 18.5291C5.49404 18.5178 5.50195 18.508 5.51185 18.5005C5.63785 18.4075 5.76385 18.3105 5.88385 18.2135C5.89465 18.2047 5.90767 18.1992 5.92144 18.1974C5.93521 18.1957 5.9492 18.1978 5.96185 18.2035C9.88884 19.9675 14.1419 19.9675 18.0228 18.2035C18.0355 18.1974 18.0497 18.1951 18.0636 18.1967C18.0776 18.1983 18.0908 18.2038 18.1019 18.2125C18.2219 18.3105 18.3468 18.4075 18.4739 18.5005C18.4838 18.5079 18.4919 18.5176 18.4973 18.5287C18.5025 18.5399 18.5051 18.5523 18.5045 18.5646C18.5039 18.577 18.5001 18.5891 18.4938 18.5997C18.4874 18.6103 18.4785 18.6192 18.4679 18.6255C17.8698 18.9695 17.2478 19.2605 16.5948 19.5025C16.5848 19.5061 16.5757 19.5119 16.568 19.5193C16.5603 19.5268 16.5545 19.5358 16.5506 19.5457C16.5467 19.5557 16.545 19.5664 16.5456 19.5769C16.5461 19.5876 16.5489 19.5981 16.5539 19.6075C16.9139 20.2945 17.3258 20.9485 17.7788 21.5695C17.7883 21.5823 17.8014 21.5917 17.8164 21.5968C17.8314 21.6018 17.8477 21.6021 17.8628 21.5975C20.0172 20.9491 22.0464 19.9413 23.8649 18.6165C23.8737 18.6103 23.8812 18.6023 23.8867 18.5929C23.8922 18.5837 23.8956 18.5733 23.8968 18.5625C24.3968 13.4686 23.0588 9.04254 20.3478 5.12056C20.3412 5.10781 20.3301 5.09787 20.3168 5.09256ZM8.01985 15.8785C6.83785 15.8785 5.86285 14.8096 5.86285 13.4986C5.86285 12.1865 6.81886 11.1185 8.01985 11.1185C9.22985 11.1185 10.1958 12.1955 10.1768 13.4986C10.1768 14.8105 9.22085 15.8785 8.01985 15.8785ZM15.9948 15.8785C14.8118 15.8785 13.8378 14.8096 13.8378 13.4986C13.8378 12.1865 14.7929 11.1185 15.9948 11.1185C17.2049 11.1185 18.1709 12.1955 18.1518 13.4986C18.1518 14.8105 17.2058 15.8785 15.9948 15.8785Z" fill="#8D8D90"/>
</g>
<defs>
<clipPath id="clip0_242_1182">
<rect width="24" height="24" fill="white"/>
</clipPath>
</defs>
</svg>
