<svg width="116" height="90" viewBox="0 0 116 90" fill="none" xmlns="http://www.w3.org/2000/svg">
<path d="M58.1915 0L99.8581 22.5V67.5L58.1915 90L16.5249 67.5L16.5249 22.5L58.1915 0Z" fill="white"/>
<path fill-rule="evenodd" clip-rule="evenodd" d="M16.5249 23.1666L16.5249 67.5L58.1915 90L99.8581 67.5V22.5L58.1915 0L16.5249 22.4999M17.1917 22.8976L58.1915 0.757658L99.1912 22.8976V67.1024L58.1915 89.2424L17.1915 67.1024L17.1917 22.8976Z" fill="#C5C5C5"/>
<path d="M58.1886 2.83313L97.2715 23.9165L97.2724 66.0831L58.1886 87.1664L19.1053 66.0831L19.1054 23.9165L58.1886 2.83313Z" fill="#C5C5C5"/>
<path d="M19.1053 32.6667H97.2724V57.3334H19.1053V32.6667Z" fill="#949494"/>
<path d="M93.6085 25.6667L58.109 6.33337L22.7757 25.6667V34.8751H93.6085V25.6667Z" fill="white"/>
<path d="M58.109 83.6667L93.6094 64.3334L93.6085 55.1251H22.7757L22.7756 64.3334L58.109 83.6667Z" fill="white"/>
<path fill-rule="evenodd" clip-rule="evenodd" d="M58.1091 6.48528L22.9091 25.7457L22.909 34.7417H93.4753V25.7459L58.1091 6.48528ZM93.6085 25.6667L58.109 6.33337L22.7757 25.6667V34.8751H93.6085V25.6667ZM93.4753 64.2541V55.2584H22.909V64.2544L58.1091 83.5148L93.4753 64.2541ZM58.109 83.6667L93.6094 64.3334L93.6085 55.1251H22.7757L22.7756 64.3334L58.109 83.6667Z" fill="#949494"/>
<path d="M50.1724 61.4544H50.5629V63.4584C50.5629 63.6808 50.5135 63.866 50.4145 64.0138C50.3155 64.1617 50.1839 64.2728 50.0198 64.3475C49.857 64.4207 49.68 64.4573 49.4888 64.4573C49.288 64.4573 49.1063 64.4207 48.9435 64.3475C48.7821 64.2728 48.654 64.1617 48.559 64.0138C48.4654 63.866 48.4186 63.6808 48.4186 63.4584V61.4544H48.8072V63.4584C48.8072 63.6131 48.8357 63.7405 48.8926 63.8409C48.9496 63.9413 49.029 64.0159 49.1307 64.0647C49.2337 64.1135 49.3532 64.1379 49.4888 64.1379C49.6258 64.1379 49.7451 64.1135 49.8468 64.0647C49.95 64.0159 50.03 63.9413 50.0869 63.8409C50.1439 63.7405 50.1724 63.6131 50.1724 63.4584V61.4544Z" fill="#6D6C6C"/>
<path d="M52.1055 61.4544V64.4167H51.7128V61.4544H52.1055ZM53.8938 61.4544L52.6629 62.8358L51.9712 63.554L51.906 63.1349L52.4268 62.5612L53.4218 61.4544H53.8938ZM53.5153 64.4167L52.4187 62.9722L52.6527 62.6609L53.9833 64.4167H53.5153Z" fill="#6D6C6C"/>
<path d="M54.8625 61.4544H55.8431C56.0655 61.4544 56.2534 61.4883 56.4066 61.5561C56.5613 61.624 56.6786 61.7243 56.7586 61.8572C56.84 61.9888 56.8807 62.1509 56.8807 62.3435C56.8807 62.4791 56.8529 62.6033 56.7972 62.7158C56.7431 62.827 56.6644 62.9219 56.5613 63.0006C56.4596 63.0779 56.3375 63.1356 56.1951 63.1736L56.0853 63.2163H55.1636L55.1595 62.8969H55.8553C55.9963 62.8969 56.1137 62.8724 56.2073 62.8237C56.3009 62.7734 56.3714 62.7063 56.4189 62.6222C56.4663 62.5381 56.4901 62.4452 56.4901 62.3435C56.4901 62.2296 56.4677 62.1299 56.4229 62.0444C56.3782 61.9589 56.3076 61.8932 56.2113 61.8471C56.1164 61.7996 55.9936 61.7759 55.8431 61.7759H55.2551V64.4167H54.8625V61.4544ZM56.5938 64.4167L55.8737 63.0739L56.2825 63.0719L57.013 64.3923V64.4167H56.5938Z" fill="#6D6C6C"/>
<path d="M59.0599 61.7168L58.0793 64.4167H57.6785L58.8077 61.4544H59.0661L59.0599 61.7168ZM59.8819 64.4167L58.8992 61.7168L58.8932 61.4544H59.1515L60.2847 64.4167H59.8819ZM59.8311 63.32V63.6415H58.1668V63.32H59.8311Z" fill="#6D6C6C"/>
<path d="M61.6359 61.4544V64.4167H61.2433V61.4544H61.6359Z" fill="#6D6C6C"/>
<path d="M65.162 61.4544V64.4167H64.7673L63.2761 62.1319V64.4167H62.8834V61.4544H63.2761L64.7734 63.7453V61.4544H65.162Z" fill="#6D6C6C"/>
<path d="M68.2731 64.0973V64.4167H66.7044V64.0973H68.2731ZM66.7838 61.4544V64.4167H66.3912V61.4544H66.7838ZM68.0655 62.728V63.0474H66.7044V62.728H68.0655ZM68.2527 61.4544V61.7759H66.7044V61.4544H68.2527Z" fill="#6D6C6C"/>
<path d="M54.809 71.6905V71.9997H52.8701V71.7291L53.8406 70.6488C53.9599 70.5159 54.0522 70.4033 54.1172 70.311C54.1837 70.2174 54.2298 70.134 54.2556 70.0608C54.2827 69.9862 54.2963 69.9103 54.2963 69.833C54.2963 69.7353 54.276 69.6471 54.2352 69.5684C54.1959 69.4884 54.1376 69.4247 54.0603 69.3772C53.9829 69.3298 53.8894 69.306 53.7795 69.306C53.648 69.306 53.5381 69.3317 53.45 69.3833C53.3631 69.4335 53.298 69.504 53.2547 69.5949C53.2112 69.6858 53.1895 69.7902 53.1895 69.9082H52.8131C52.8131 69.7414 52.8498 69.5888 52.923 69.4505C52.9963 69.3121 53.1047 69.2022 53.2485 69.1209C53.3923 69.0382 53.5693 68.9968 53.7795 68.9968C53.9667 68.9968 54.1268 69.03 54.2597 69.0965C54.3926 69.1616 54.4943 69.2538 54.5649 69.3731C54.6367 69.4911 54.6727 69.6295 54.6727 69.7881C54.6727 69.875 54.6578 69.9632 54.6279 70.0526C54.5994 70.1408 54.5594 70.229 54.5079 70.3172C54.4577 70.4053 54.3987 70.4921 54.3309 70.5775C54.2644 70.663 54.1932 70.7471 54.1172 70.8299L53.3238 71.6905H54.809Z" fill="#6D6C6C"/>
<path d="M57.6047 70.2826V70.7342C57.6047 70.977 57.583 71.1818 57.5396 71.3486C57.4962 71.5155 57.4338 71.6498 57.3525 71.7515C57.271 71.8532 57.1727 71.9271 57.0574 71.9732C56.9435 72.018 56.8146 72.0404 56.6709 72.0404C56.557 72.0404 56.4518 72.0262 56.3555 71.9976C56.2592 71.9692 56.1724 71.9237 56.0951 71.8614C56.0191 71.7976 55.954 71.7149 55.8998 71.6132C55.8455 71.5114 55.8042 71.388 55.7757 71.2428C55.7472 71.0977 55.7329 70.9282 55.7329 70.7342V70.2826C55.7329 70.0398 55.7547 69.8363 55.7981 69.6722C55.8428 69.5081 55.9059 69.3766 55.9873 69.2775C56.0686 69.1771 56.1663 69.1052 56.2802 69.0618C56.3955 69.0185 56.5244 68.9968 56.6668 68.9968C56.782 68.9968 56.8879 69.011 56.9842 69.0395C57.0818 69.0666 57.1686 69.1107 57.2445 69.1717C57.3205 69.2314 57.385 69.3114 57.4379 69.4118C57.4921 69.5108 57.5335 69.6322 57.562 69.776C57.5904 69.9197 57.6047 70.0886 57.6047 70.2826ZM57.2263 70.7952V70.2195C57.2263 70.0866 57.2182 69.9699 57.2019 69.8696C57.187 69.7678 57.1645 69.681 57.1348 69.6091C57.1049 69.5372 57.0669 69.4789 57.0208 69.4342C56.976 69.3894 56.9238 69.3569 56.8641 69.3365C56.8058 69.3148 56.74 69.3039 56.6668 69.3039C56.5773 69.3039 56.4979 69.3209 56.4288 69.3548C56.3596 69.3874 56.3013 69.4396 56.2537 69.5115C56.2077 69.5834 56.1724 69.6776 56.148 69.7943C56.1236 69.9109 56.1114 70.0526 56.1114 70.2195V70.7952C56.1114 70.9282 56.1188 71.0455 56.1338 71.1472C56.1501 71.2489 56.1737 71.3371 56.205 71.4117C56.2362 71.485 56.2742 71.5453 56.3189 71.5928C56.3636 71.6402 56.4152 71.6755 56.4735 71.6986C56.5332 71.7203 56.599 71.7311 56.6709 71.7311C56.7631 71.7311 56.8438 71.7135 56.913 71.6782C56.9821 71.6429 57.0398 71.588 57.0859 71.5134C57.1334 71.4375 57.1686 71.3405 57.1917 71.2225C57.2148 71.1031 57.2263 70.9607 57.2263 70.7952Z" fill="#6D6C6C"/>
<path d="M60.5631 71.6905V71.9997H58.6242V71.7291L59.5947 70.6488C59.7141 70.5159 59.8063 70.4033 59.8715 70.311C59.9379 70.2174 59.984 70.134 60.0098 70.0608C60.0369 69.9862 60.0505 69.9103 60.0505 69.833C60.0505 69.7353 60.0301 69.6471 59.9895 69.5684C59.9501 69.4884 59.8918 69.4247 59.8145 69.3772C59.7372 69.3298 59.6436 69.306 59.5337 69.306C59.4021 69.306 59.2922 69.3317 59.2041 69.3833C59.1173 69.4335 59.0522 69.504 59.0088 69.5949C58.9653 69.6858 58.9437 69.7902 58.9437 69.9082H58.5673C58.5673 69.7414 58.6039 69.5888 58.6772 69.4505C58.7504 69.3121 58.8589 69.2022 59.0027 69.1209C59.1464 69.0382 59.3235 68.9968 59.5337 68.9968C59.7209 68.9968 59.8809 69.03 60.0138 69.0965C60.1468 69.1616 60.2485 69.2538 60.319 69.3731C60.3909 69.4911 60.4269 69.6295 60.4269 69.7881C60.4269 69.875 60.4119 69.9632 60.3821 70.0526C60.3536 70.1408 60.3135 70.229 60.2621 70.3172C60.2118 70.4053 60.1529 70.4921 60.085 70.5775C60.0186 70.663 59.9473 70.7471 59.8715 70.8299L59.0779 71.6905H60.5631Z" fill="#6D6C6C"/>
<path d="M62.0487 70.3334H62.3172C62.4488 70.3334 62.5573 70.3118 62.6428 70.2683C62.7295 70.2236 62.794 70.1632 62.836 70.0872C62.8794 70.0099 62.9011 69.9231 62.9011 69.8268C62.9011 69.7129 62.8822 69.6173 62.8442 69.54C62.8062 69.4627 62.7492 69.4044 62.6733 69.365C62.5973 69.3256 62.501 69.306 62.3844 69.306C62.2785 69.306 62.1849 69.3271 62.1036 69.3691C62.0236 69.4098 61.9605 69.4681 61.9144 69.5441C61.8696 69.62 61.8472 69.7095 61.8472 69.8126H61.4709C61.4709 69.662 61.5088 69.5251 61.5848 69.4016C61.6608 69.2782 61.7672 69.1798 61.9042 69.1067C62.0425 69.0334 62.2026 68.9968 62.3844 68.9968C62.5634 68.9968 62.7201 69.0286 62.8543 69.0923C62.9886 69.1548 63.093 69.2483 63.1676 69.3731C63.2422 69.4965 63.2795 69.6505 63.2795 69.8349C63.2795 69.9095 63.2619 69.9896 63.2266 70.0751C63.1927 70.1591 63.1391 70.2378 63.0659 70.311C62.994 70.3843 62.9004 70.4447 62.7851 70.4921C62.6698 70.5382 62.5315 70.5613 62.3701 70.5613H62.0487V70.3334ZM62.0487 70.6427V70.4169H62.3701C62.5586 70.4169 62.7146 70.4392 62.8381 70.484C62.9614 70.5287 63.0585 70.5884 63.1289 70.663C63.2008 70.7376 63.2511 70.8196 63.2795 70.9092C63.3094 70.9974 63.3242 71.0855 63.3242 71.1737C63.3242 71.312 63.3006 71.4348 63.253 71.5419C63.207 71.6491 63.1412 71.74 63.0558 71.8146C62.9716 71.8892 62.8726 71.9454 62.7587 71.9834C62.6447 72.0214 62.5206 72.0404 62.3863 72.0404C62.2576 72.0404 62.1361 72.022 62.0222 71.9855C61.9096 71.9489 61.8099 71.8959 61.7231 71.8267C61.6363 71.7563 61.5685 71.6701 61.5196 71.5683C61.4709 71.4653 61.4465 71.3479 61.4465 71.2164H61.8229C61.8229 71.3195 61.8452 71.4097 61.89 71.487C61.9361 71.5643 62.0011 71.6247 62.0853 71.6681C62.1707 71.7101 62.2711 71.7311 62.3863 71.7311C62.5016 71.7311 62.6006 71.7114 62.6834 71.6721C62.7675 71.6314 62.8319 71.5704 62.8767 71.489C62.9228 71.4077 62.9459 71.3053 62.9459 71.1818C62.9459 71.0584 62.9201 70.9573 62.8686 70.8787C62.817 70.7987 62.7437 70.7396 62.6488 70.7016C62.5553 70.6623 62.4447 70.6427 62.3172 70.6427H62.0487Z" fill="#6D6C6C"/>
<path d="M55.2706 11.0729V13.9166H54.8995V11.0729H55.2706ZM56.1846 11.0729V11.3815H53.9874V11.0729H56.1846Z" fill="#6D6C6C"/>
<path d="M59.408 12.4049V12.5846C59.408 12.7981 59.3812 12.9895 59.3279 13.1588C59.2745 13.3281 59.1976 13.4719 59.0974 13.5904C58.9971 13.7089 58.8767 13.7994 58.736 13.8619C58.5967 13.9244 58.4405 13.9557 58.2673 13.9557C58.0994 13.9557 57.945 13.9244 57.8044 13.8619C57.6651 13.7994 57.544 13.7089 57.4411 13.5904C57.3396 13.4719 57.2608 13.3281 57.2048 13.1588C57.1488 12.9895 57.1208 12.7981 57.1208 12.5846V12.4049C57.1208 12.1913 57.1482 12.0006 57.2029 11.8327C57.2589 11.6634 57.3376 11.5195 57.4392 11.401C57.5407 11.2811 57.6612 11.1901 57.8005 11.1275C57.9412 11.065 58.0954 11.0338 58.2634 11.0338C58.4366 11.0338 58.5928 11.065 58.7322 11.1275C58.8727 11.1901 58.9932 11.2811 59.0935 11.401C59.195 11.5195 59.2725 11.6634 59.3259 11.8327C59.3806 12.0006 59.408 12.1913 59.408 12.4049ZM59.0349 12.5846V12.401C59.0349 12.2317 59.0173 12.082 58.9822 11.9517C58.9483 11.8216 58.8982 11.7121 58.8318 11.6236C58.7654 11.5351 58.684 11.4681 58.5876 11.4224C58.4926 11.3769 58.3845 11.3541 58.2634 11.3541C58.1463 11.3541 58.0401 11.3769 57.945 11.4224C57.8513 11.4681 57.7706 11.5351 57.7028 11.6236C57.6364 11.7121 57.585 11.8216 57.5486 11.9517C57.5121 12.082 57.4939 12.2317 57.4939 12.401V12.5846C57.4939 12.7552 57.5121 12.9062 57.5486 13.0377C57.585 13.1679 57.6371 13.278 57.7048 13.3678C57.7738 13.4563 57.8552 13.5234 57.949 13.5689C58.044 13.6145 58.1501 13.6373 58.2673 13.6373C58.3897 13.6373 58.4984 13.6145 58.5935 13.5689C58.6885 13.5234 58.7686 13.4563 58.8337 13.3678C58.9001 13.278 58.9502 13.1679 58.9841 13.0377C59.018 12.9062 59.0349 12.7552 59.0349 12.5846Z" fill="#6D6C6C"/>
<path d="M61.6878 12.8013H60.9282V12.4947H61.6878C61.835 12.4947 61.9541 12.4713 62.0453 12.4244C62.1364 12.3775 62.2028 12.3124 62.2445 12.2291C62.2875 12.1458 62.3089 12.0507 62.3089 11.944C62.3089 11.8462 62.2875 11.7544 62.2445 11.6686C62.2028 11.5826 62.1364 11.5136 62.0453 11.4615C61.9541 11.4081 61.835 11.3815 61.6878 11.3815H61.016V13.9166H60.6391V11.0729H61.6878C61.9028 11.0729 62.0844 11.11 62.2328 11.1842C62.3812 11.2584 62.4939 11.3612 62.5707 11.4927C62.6475 11.623 62.6859 11.7721 62.6859 11.94C62.6859 12.1224 62.6475 12.2779 62.5707 12.4069C62.4939 12.5357 62.3812 12.634 62.2328 12.7018C62.0844 12.7681 61.9028 12.8013 61.6878 12.8013Z" fill="#6D6C6C"/>
<path d="M53.0522 18.6145C53.0522 18.5482 53.0418 18.4895 53.0209 18.4387C53.0014 18.3867 52.9663 18.3398 52.9155 18.2981C52.866 18.2565 52.797 18.2167 52.7085 18.179C52.6212 18.1412 52.5105 18.1028 52.3764 18.0638C52.2358 18.0221 52.1089 17.9758 51.9956 17.9251C51.8823 17.873 51.7852 17.8138 51.7045 17.7473C51.6238 17.6809 51.562 17.6048 51.519 17.5188C51.476 17.4329 51.4546 17.3346 51.4546 17.2239C51.4546 17.1132 51.4774 17.0111 51.5229 16.9173C51.5685 16.8235 51.6336 16.7421 51.7182 16.6731C51.8041 16.6028 51.9064 16.5481 52.0248 16.509C52.1434 16.47 52.2755 16.4504 52.4214 16.4504C52.6349 16.4504 52.8159 16.4915 52.9643 16.5735C53.1141 16.6542 53.228 16.7603 53.3061 16.8919C53.3843 17.022 53.4233 17.1614 53.4233 17.3099H53.0483C53.0483 17.203 53.0255 17.1087 52.9799 17.0266C52.9344 16.9433 52.8653 16.8782 52.7729 16.8313C52.6805 16.7832 52.5633 16.7591 52.4214 16.7591C52.2873 16.7591 52.1766 16.7792 52.0893 16.8196C52.002 16.8599 51.937 16.9147 51.894 16.9837C51.8524 17.0526 51.8315 17.1315 51.8315 17.22C51.8315 17.2799 51.8438 17.3346 51.8686 17.384C51.8947 17.4322 51.9344 17.4772 51.9877 17.5188C52.0425 17.5605 52.1115 17.5989 52.1948 17.634C52.2794 17.6692 52.3803 17.7031 52.4975 17.7356C52.659 17.7812 52.7983 17.8319 52.9155 17.8879C53.0326 17.944 53.129 18.0071 53.2045 18.0774C53.2814 18.1464 53.338 18.2252 53.3745 18.3137C53.4123 18.401 53.4311 18.4999 53.4311 18.6106C53.4311 18.7265 53.4077 18.8313 53.3608 18.9251C53.3139 19.0189 53.2468 19.0989 53.1596 19.1653C53.0724 19.2317 52.9676 19.2831 52.8452 19.3196C52.7241 19.3547 52.5887 19.3723 52.4389 19.3723C52.3074 19.3723 52.1778 19.3541 52.0503 19.3177C51.9239 19.2812 51.8087 19.2265 51.7045 19.1536C51.6017 19.0807 51.519 18.9908 51.4565 18.884C51.3953 18.7759 51.3647 18.6509 51.3647 18.509H51.7397C51.7397 18.6067 51.7586 18.6907 51.7963 18.761C51.8341 18.83 51.8855 18.8873 51.9507 18.9329C52.0171 18.9785 52.092 19.0123 52.1752 19.0344C52.2599 19.0553 52.3477 19.0657 52.4389 19.0657C52.5704 19.0657 52.6817 19.0475 52.7729 19.011C52.8641 18.9746 52.9331 18.9225 52.9799 18.8548C53.0281 18.787 53.0522 18.707 53.0522 18.6145Z" fill="#6D6C6C"/>
<path d="M55.629 16.4895V19.3332H55.258V16.4895H55.629ZM56.5431 16.4895V16.7981H54.3458V16.4895H56.5431Z" fill="#6D6C6C"/>
<path d="M58.5281 16.7415L57.5867 19.3332H57.202L58.2859 16.4895H58.534L58.5281 16.7415ZM59.3172 19.3332L58.3738 16.7415L58.3679 16.4895H58.616L59.7039 19.3332H59.3172ZM59.2684 18.2805V18.5891H57.6707V18.2805H59.2684Z" fill="#6D6C6C"/>
<path d="M61.1284 16.4895V19.3332H60.7514V16.4895H61.1284ZM62.3198 17.7689V18.0774H61.0463V17.7689H62.3198ZM62.5132 16.4895V16.7981H61.0463V16.4895H62.5132Z" fill="#6D6C6C"/>
<path d="M64.006 16.4895V19.3332H63.6291V16.4895H64.006ZM65.1974 17.7689V18.0774H63.924V17.7689H65.1974ZM65.3907 16.4895V16.7981H63.924V16.4895H65.3907Z" fill="#6D6C6C"/>
<path d="M41.012 22.1581L40.0706 24.7499H39.6858L40.7698 21.9062H41.0178L41.012 22.1581ZM41.801 24.7499L40.8577 22.1581L40.8519 21.9062H41.0999L42.1877 24.7499H41.801ZM41.7522 23.6972V24.0058H40.1545V23.6972H41.7522Z" fill="#6D6C6C"/>
<path d="M44.8271 21.9062H45.2021V23.8299C45.2021 24.0435 45.1546 24.2213 45.0595 24.3632C44.9644 24.5051 44.8381 24.6119 44.6805 24.6835C44.5243 24.7538 44.3544 24.789 44.1708 24.789C43.9781 24.789 43.8037 24.7538 43.6473 24.6835C43.4925 24.6119 43.3694 24.5051 43.2783 24.3632C43.1884 24.2213 43.1434 24.0435 43.1434 23.8299V21.9062H43.5165V23.8299C43.5165 23.9784 43.5438 24.1008 43.5986 24.1971C43.6533 24.2935 43.7294 24.3652 43.8271 24.412C43.9261 24.4589 44.0406 24.4823 44.1708 24.4823C44.3024 24.4823 44.4169 24.4589 44.5146 24.412C44.6135 24.3652 44.6904 24.2935 44.7451 24.1971C44.7997 24.1008 44.8271 23.9784 44.8271 23.8299V21.9062Z" fill="#6D6C6C"/>
<path d="M48.5621 23.3339V24.3749C48.527 24.427 48.471 24.4856 48.3941 24.5507C48.3173 24.6145 48.2112 24.6704 48.0758 24.7187C47.9417 24.7655 47.7685 24.789 47.5562 24.789C47.3831 24.789 47.2236 24.759 47.0777 24.6992C46.9332 24.638 46.8075 24.5494 46.7008 24.4335C46.5953 24.3163 46.5133 24.1744 46.4547 24.0077C46.3974 23.8397 46.3688 23.6497 46.3688 23.4374V23.2167C46.3688 23.0045 46.3935 22.815 46.4429 22.6483C46.4938 22.4816 46.5679 22.3404 46.6656 22.2245C46.7632 22.1073 46.883 22.0188 47.025 21.9588C47.1669 21.8977 47.3297 21.8671 47.5133 21.8671C47.7307 21.8671 47.9124 21.9048 48.0582 21.9803C48.2053 22.0546 48.3199 22.1575 48.402 22.289C48.4853 22.4204 48.5387 22.5702 48.5621 22.7381H48.1852C48.1682 22.6353 48.1344 22.5416 48.0836 22.4569C48.0341 22.3723 47.9631 22.3046 47.8707 22.2538C47.7783 22.2017 47.6591 22.1756 47.5133 22.1756C47.3818 22.1756 47.2679 22.1998 47.1715 22.2479C47.0751 22.2962 46.9957 22.3651 46.9332 22.455C46.8707 22.5448 46.8238 22.6535 46.7926 22.7812C46.7626 22.9088 46.7477 23.0526 46.7477 23.2128V23.4374C46.7477 23.6014 46.7666 23.7479 46.8043 23.8768C46.8433 24.0058 46.8987 24.1158 46.9703 24.2069C47.0419 24.2968 47.1272 24.3652 47.2262 24.412C47.3265 24.4589 47.4371 24.4823 47.5582 24.4823C47.6923 24.4823 47.801 24.4713 47.8844 24.4491C47.9677 24.4256 48.0328 24.3984 48.0797 24.3671C48.1266 24.3346 48.1624 24.304 48.1871 24.2753V23.6386H47.5289V23.3339H48.5621Z" fill="#6D6C6C"/>
<path d="M49.9729 21.9062H50.3381L51.2698 24.2245L52.1995 21.9062H52.5666L51.4104 24.7499H51.1253L49.9729 21.9062ZM49.8537 21.9062H50.176L50.2288 23.6405V24.7499H49.8537V21.9062ZM52.3616 21.9062H52.6839V24.7499H52.3089V23.6405L52.3616 21.9062Z" fill="#6D6C6C"/>
<path d="M55.8193 24.4433V24.7499H54.3134V24.4433H55.8193ZM54.3896 21.9062V24.7499H54.0126V21.9062H54.3896ZM55.62 23.1288V23.4355H54.3134V23.1288H55.62ZM55.7998 21.9062V22.2147H54.3134V21.9062H55.7998Z" fill="#6D6C6C"/>
<path d="M59.1402 21.9062V24.7499H58.7613L57.3297 22.5565V24.7499H56.9528V21.9062H57.3297L58.7672 24.1053V21.9062H59.1402Z" fill="#6D6C6C"/>
<path d="M61.4671 21.9062V24.7499H61.0959V21.9062H61.4671ZM62.3811 21.9062V22.2147H60.1839V21.9062H62.3811Z" fill="#6D6C6C"/>
<path d="M64.3662 22.1581L63.4248 24.7499H63.04L64.124 21.9062H64.372L64.3662 22.1581ZM65.1552 24.7499L64.2118 22.1581L64.206 21.9062H64.454L65.5419 24.7499H65.1552ZM65.1064 23.6972V24.0058H63.5087V23.6972H65.1064Z" fill="#6D6C6C"/>
<path d="M67.3863 21.9062V24.7499H67.0152V21.9062H67.3863ZM68.3004 21.9062V22.2147H66.1032V21.9062H68.3004Z" fill="#6D6C6C"/>
<path d="M69.7932 21.9062V24.7499H69.4162V21.9062H69.7932Z" fill="#6D6C6C"/>
<path d="M73.3349 23.2382V23.4178C73.3349 23.6314 73.3082 23.8228 73.2548 23.9921C73.2015 24.1613 73.1246 24.3052 73.0243 24.4238C72.9241 24.5422 72.8037 24.6327 72.663 24.6952C72.5237 24.7577 72.3674 24.789 72.1943 24.789C72.0263 24.789 71.872 24.7577 71.7314 24.6952C71.5921 24.6327 71.4709 24.5422 71.3681 24.4238C71.2665 24.3052 71.1878 24.1613 71.1317 23.9921C71.0757 23.8228 71.0478 23.6314 71.0478 23.4178V23.2382C71.0478 23.0246 71.0751 22.8339 71.1298 22.6659C71.1858 22.4967 71.2646 22.3528 71.3662 22.2342C71.4677 22.1144 71.5881 22.0234 71.7274 21.9608C71.8681 21.8984 72.0224 21.8671 72.1904 21.8671C72.3636 21.8671 72.5198 21.8984 72.6591 21.9608C72.7997 22.0234 72.9202 22.1144 73.0205 22.2342C73.122 22.3528 73.1995 22.4967 73.2528 22.6659C73.3076 22.8339 73.3349 23.0246 73.3349 23.2382ZM72.9619 23.4178V23.2343C72.9619 23.065 72.9442 22.9153 72.9091 22.785C72.8753 22.6548 72.8252 22.5455 72.7587 22.4569C72.6923 22.3684 72.611 22.3013 72.5146 22.2557C72.4195 22.2102 72.3114 22.1874 72.1904 22.1874C72.0732 22.1874 71.967 22.2102 71.872 22.2557C71.7783 22.3013 71.6976 22.3684 71.6298 22.4569C71.5634 22.5455 71.512 22.6548 71.4755 22.785C71.4391 22.9153 71.4208 23.065 71.4208 23.2343V23.4178C71.4208 23.5885 71.4391 23.7395 71.4755 23.871C71.512 24.0012 71.5641 24.1112 71.6318 24.2011C71.7008 24.2896 71.7822 24.3567 71.8759 24.4022C71.971 24.4478 72.0771 24.4706 72.1943 24.4706C72.3167 24.4706 72.4254 24.4478 72.5204 24.4022C72.6155 24.3567 72.6956 24.2896 72.7606 24.2011C72.8271 24.1112 72.8772 24.0012 72.911 23.871C72.945 23.7395 72.9619 23.5885 72.9619 23.4178Z" fill="#6D6C6C"/>
<path d="M76.7535 21.9062V24.7499H76.3746L74.943 22.5565V24.7499H74.566V21.9062H74.943L76.3804 24.1053V21.9062H76.7535Z" fill="#6D6C6C"/>
<path d="M48.9514 29.2624H49.3264C49.3069 29.4421 49.2554 29.6029 49.1721 29.7448C49.0888 29.8868 48.9709 29.9994 48.8186 30.0827C48.6663 30.1648 48.4762 30.2058 48.2483 30.2058C48.0817 30.2058 47.9299 30.1745 47.7932 30.112C47.6578 30.0495 47.5413 29.961 47.4436 29.8464C47.346 29.7305 47.2705 29.5918 47.217 29.4304C47.165 29.2677 47.1389 29.0867 47.1389 28.8874V28.6042C47.1389 28.405 47.165 28.2246 47.217 28.0632C47.2705 27.9005 47.3466 27.7611 47.4455 27.6452C47.5458 27.5293 47.6663 27.4401 47.8069 27.3777C47.9476 27.3152 48.1057 27.2839 48.2815 27.2839C48.4964 27.2839 48.678 27.3243 48.8264 27.405C48.9749 27.4857 49.0901 27.5977 49.1721 27.7409C49.2554 27.8828 49.3069 28.0476 49.3264 28.2351H48.9514C48.9332 28.1022 48.8993 27.9883 48.8499 27.8933C48.8004 27.797 48.7301 27.7227 48.6389 27.6706C48.5478 27.6185 48.4286 27.5925 48.2815 27.5925C48.1552 27.5925 48.0439 27.6166 47.9476 27.6648C47.8525 27.7129 47.7724 27.7813 47.7073 27.8699C47.6434 27.9584 47.5953 28.0645 47.5627 28.1882C47.5302 28.3119 47.5139 28.4493 47.5139 28.6003V28.8874C47.5139 29.0267 47.5282 29.1576 47.5569 29.28C47.5868 29.4024 47.6317 29.5098 47.6917 29.6023C47.7515 29.6947 47.8278 29.7676 47.9202 29.821C48.0126 29.8731 48.122 29.8991 48.2483 29.8991C48.4084 29.8991 48.5361 29.8737 48.6311 29.823C48.7261 29.7722 48.7978 29.6993 48.8459 29.6043C48.8954 29.5091 48.9306 29.3953 48.9514 29.2624Z" fill="#6D6C6C"/>
<path d="M52.6962 28.655V28.8347C52.6962 29.0482 52.6695 29.2397 52.6161 29.4089C52.5627 29.5782 52.4859 29.7221 52.3856 29.8405C52.2854 29.959 52.1649 30.0495 52.0244 30.112C51.885 30.1745 51.7288 30.2058 51.5556 30.2058C51.3876 30.2058 51.2334 30.1745 51.0927 30.112C50.9534 30.0495 50.8323 29.959 50.7294 29.8405C50.6278 29.7221 50.5491 29.5782 50.4931 29.4089C50.4371 29.2397 50.4091 29.0482 50.4091 28.8347V28.655C50.4091 28.4415 50.4364 28.2507 50.4911 28.0827C50.5471 27.9134 50.6259 27.7696 50.7275 27.6511C50.829 27.5313 50.9495 27.4401 51.0888 27.3777C51.2294 27.3152 51.3837 27.2839 51.5517 27.2839C51.7248 27.2839 51.8811 27.3152 52.0204 27.3777C52.1611 27.4401 52.2815 27.5313 52.3818 27.6511C52.4834 27.7696 52.5608 27.9134 52.6142 28.0827C52.6689 28.2507 52.6962 28.4415 52.6962 28.655ZM52.3232 28.8347V28.6511C52.3232 28.4818 52.3056 28.3321 52.2704 28.2019C52.2366 28.0716 52.1865 27.9623 52.12 27.8737C52.0536 27.7852 51.9723 27.7181 51.8759 27.6726C51.7808 27.627 51.6727 27.6042 51.5517 27.6042C51.4345 27.6042 51.3284 27.627 51.2334 27.6726C51.1396 27.7181 51.0588 27.7852 50.9912 27.8737C50.9247 27.9623 50.8733 28.0716 50.8368 28.2019C50.8004 28.3321 50.7822 28.4818 50.7822 28.6511V28.8347C50.7822 29.0052 50.8004 29.1563 50.8368 29.2878C50.8733 29.418 50.9254 29.528 50.9931 29.6178C51.0621 29.7064 51.1434 29.7735 51.2372 29.8191C51.3323 29.8646 51.4384 29.8874 51.5556 29.8874C51.678 29.8874 51.7867 29.8646 51.8817 29.8191C51.9768 29.7735 52.0569 29.7064 52.122 29.6178C52.1884 29.528 52.2386 29.418 52.2724 29.2878C52.3062 29.1563 52.3232 29.0052 52.3232 28.8347Z" fill="#6D6C6C"/>
<path d="M54.0465 27.3229H54.4117L55.3434 29.6413L56.273 27.3229H56.6402L55.484 30.1668H55.1988L54.0465 27.3229ZM53.9273 27.3229H54.2496L54.3024 29.0573V30.1668H53.9273V27.3229ZM56.4352 27.3229H56.7574V30.1668H56.3824V29.0573L56.4352 27.3229Z" fill="#6D6C6C"/>
<path d="M59.135 29.0515H58.3752V28.7448H59.135C59.2821 28.7448 59.4013 28.7214 59.4925 28.6746C59.5836 28.6277 59.65 28.5625 59.6916 28.4793C59.7347 28.3959 59.7561 28.3008 59.7561 28.194C59.7561 28.0964 59.7347 28.0046 59.6916 27.9186C59.65 27.8327 59.5836 27.7638 59.4925 27.7116C59.4013 27.6583 59.2821 27.6315 59.135 27.6315H58.4632V30.1668H58.0862V27.3229H59.135C59.3498 27.3229 59.5315 27.3601 59.6799 27.4343C59.8284 27.5085 59.941 27.6114 60.0178 27.7429C60.0947 27.8731 60.1331 28.0221 60.1331 28.1902C60.1331 28.3724 60.0947 28.528 60.0178 28.6569C59.941 28.7859 59.8284 28.8842 59.6799 28.9518C59.5315 29.0183 59.3498 29.0515 59.135 29.0515Z" fill="#6D6C6C"/>
<path d="M62.0595 27.5749L61.1181 30.1668H60.7333L61.8173 27.3229H62.0654L62.0595 27.5749ZM62.8486 30.1668L61.9052 27.5749L61.8993 27.3229H62.1474L63.2353 30.1668H62.8486ZM62.7997 29.114V29.4225H61.2021V29.114H62.7997Z" fill="#6D6C6C"/>
<path d="M66.4703 27.3229V30.1668H66.0914L64.6597 27.9734V30.1668H64.2828V27.3229H64.6597L66.0972 29.5222V27.3229H66.4703Z" fill="#6D6C6C"/>
<path d="M67.8811 27.3229L68.6194 28.7507L69.3596 27.3229H69.7874L68.8068 29.1042V30.1668H68.4299V29.1042L67.4495 27.3229H67.8811Z" fill="#6D6C6C"/>
<path fill-rule="evenodd" clip-rule="evenodd" d="M88.1084 32.6666H28.3584V32.5833H88.1084V32.6666Z" fill="#949494"/>
<path fill-rule="evenodd" clip-rule="evenodd" d="M88.1084 57.3335H28.3584V57.2502H88.1084V57.3335Z" fill="#949494"/>
<path d="M48.1093 39.5416H50.1543V50.1565H48.1093V39.5416Z" fill="white"/>
<path d="M56.7227 46.947C56.7227 48.6432 55.2528 48.7974 54.7627 48.7974C53.6194 48.7974 53.2894 47.7951 53.2894 47.2554V43.1815H51.7444V47.1783C51.7444 48.1806 52.0711 49.1058 52.7244 49.6455C53.2961 50.1852 53.8644 50.4165 54.7627 50.4165C55.416 50.4165 56.2328 50.2624 56.7227 49.7998V50.1665H58.5177V43.1815H56.7227V46.947Z" fill="white"/>
<path d="M62.1931 40.7329H60.3147V43.1815H59.1764V44.5443H60.3147V50.1664H62.1931V44.5443H63.5814V43.1815H62.1931V40.7329Z" fill="white"/>
<path d="M69.48 48.2215C69.0729 48.5243 68.503 48.7513 67.933 48.7513C66.6304 48.7513 65.7348 47.8432 65.7348 46.6322C65.7348 45.4214 66.6304 44.5889 67.933 44.5889C68.503 44.5889 69.0729 44.7403 69.48 45.1186L69.7243 45.3457L71.027 44.2105L70.7013 43.9834C69.9685 43.378 68.9915 42.9996 67.933 42.9996C65.6534 42.9996 63.9436 44.5889 63.9436 46.7079C63.9436 48.827 65.6534 50.4163 67.933 50.4163C68.9915 50.4163 69.9685 50.0378 70.7013 49.4324L71.027 49.2054L69.7243 47.9945L69.48 48.2215Z" fill="white"/>
<path d="M77.7079 43.8816C77.1363 43.3419 76.3146 43.1106 75.4163 43.1106C74.763 43.1106 74.0263 43.2648 73.5363 43.7274V39.4681H71.7413V50.1664H73.5363V46.3301C73.5363 45.0832 74.8446 44.7297 75.3346 44.7297C76.4779 44.7297 76.6463 45.482 76.6463 46.0218V50.0894H78.5246V46.0988C78.5246 45.0965 78.2796 44.4213 77.7079 43.8816Z" fill="white"/>
<path d="M67.5832 47.6667C68.3196 47.6667 68.9166 47.0697 68.9166 46.3333C68.9166 45.597 68.3196 45 67.5832 45C66.8468 45 66.2499 45.597 66.2499 46.3333C66.2499 47.0697 66.8468 47.6667 67.5832 47.6667Z" fill="white"/>
<path d="M45.8993 47.7345C45.2497 48.3476 44.2754 48.7307 43.2199 48.7307C41.1899 48.7307 39.7284 47.1981 39.7284 45.1292C39.7284 43.0601 41.1899 41.5276 43.301 41.5276C44.2754 41.5276 45.2497 41.9108 45.9805 42.6004L46.2241 42.8303L47.442 41.6808L47.1985 41.4509C46.1429 40.4548 44.7625 39.9184 43.301 39.9184C40.2156 39.8417 37.9421 42.1406 37.9421 45.1292C37.9421 48.1177 40.2156 50.4166 43.2199 50.4166C44.6814 50.4166 46.1429 49.8801 47.1173 48.884L47.3608 48.6541L46.1429 47.5046L45.8993 47.7345Z" fill="white"/>
</svg>
