<svg width="114" height="52" viewBox="0 0 114 52" fill="none" xmlns="http://www.w3.org/2000/svg">
<mask id="mask0_242_801" style="mask-type:luminance" maskUnits="userSpaceOnUse" x="0" y="0" width="114" height="52">
<path d="M110.1 0.799988H3.90005C1.91182 0.799988 0.300049 2.41176 0.300049 4.39999V47.6C0.300049 49.5882 1.91182 51.2 3.90005 51.2H110.1C112.088 51.2 113.7 49.5882 113.7 47.6V4.39999C113.7 2.41176 112.088 0.799988 110.1 0.799988Z" fill="white"/>
</mask>
<g mask="url(#mask0_242_801)">
<path d="M52.1884 43.9755L35.7375 30.0063L45.3935 29.2899L52.1884 34.3045C63.6324 23.917 86.5205 4.93324 113.7 9.23146C86.5205 5.64964 56.8375 40.0355 52.1884 43.9755Z" fill="white"/>
<path d="M6.70485 6.90491V27.7747H2.36731V6.90491H6.70485Z" fill="#A6A6A6"/>
<path d="M17.4155 6.53571C20.345 6.53571 22.8304 7.28343 24.8716 8.77887L22.802 12.4418C21.0821 11.1167 19.2772 10.4542 17.3872 10.4542C16.4233 10.4542 15.6389 10.6529 15.0341 11.0505C14.4482 11.448 14.1553 12.0064 14.1553 12.7257C14.1553 13.3693 14.4199 13.8804 14.9491 14.2591C15.4783 14.6187 16.4894 14.9594 17.9825 15.2812C20.6096 15.8113 22.4524 16.5589 23.5108 17.5243C24.5692 18.4709 25.0984 19.7675 25.0984 21.4144C25.0984 23.4588 24.3896 25.0962 22.9721 26.3266C21.5546 27.5381 19.6268 28.1439 17.1887 28.1439C13.9568 28.1439 11.2636 27.2164 9.10901 25.3612L11.462 21.7835C12.1613 22.5218 13.0496 23.118 14.1269 23.5723C15.2042 24.0078 16.2721 24.2255 17.3305 24.2255C18.4267 24.2255 19.2677 24.0172 19.8536 23.6008C20.4584 23.1844 20.7608 22.5975 20.7608 21.8403C20.7608 21.1967 20.4584 20.6761 19.8536 20.2786C19.2677 19.8622 18.2282 19.5025 16.7351 19.1996C14.1647 18.6507 12.3598 17.8841 11.3203 16.8997C10.2997 15.8964 9.78939 14.5903 9.78939 12.9812C9.78939 11.1073 10.4981 9.56448 11.9156 8.35299C13.352 7.1415 15.1853 6.53571 17.4155 6.53571Z" fill="#A6A6A6"/>
<path d="M37.5316 6.53571C40.5934 6.53571 43.1449 7.56738 45.1861 9.63072C47.2273 11.6752 48.2479 14.2591 48.2479 17.3824C48.2479 20.4869 47.2273 23.0612 45.1861 25.1057C43.1449 27.1311 40.5934 28.1439 37.5316 28.1439C34.4509 28.1439 31.89 27.1311 29.8488 25.1057C27.8265 23.0612 26.8153 20.4869 26.8153 17.3824C26.8153 14.2591 27.8265 11.6752 29.8488 9.63072C31.89 7.56738 34.4509 6.53571 37.5316 6.53571ZM42.0676 12.4418C40.8958 11.1546 39.3838 10.5109 37.5316 10.5109C35.6794 10.5109 34.158 11.1546 32.9673 12.4418C31.7955 13.7101 31.2096 15.357 31.2096 17.3824C31.2096 19.3511 31.7955 20.979 32.9673 22.2663C34.158 23.5345 35.6794 24.1687 37.5316 24.1687C39.3649 24.1687 40.8675 23.5345 42.0393 22.2663C43.23 20.979 43.8253 19.3511 43.8253 17.3824C43.8253 15.3759 43.2394 13.729 42.0676 12.4418Z" fill="#A6A6A6"/>
<path d="M6.02437 34.9016C7.51747 34.9016 8.76014 35.408 9.75241 36.4207L8.83102 37.4714C8.07502 36.6479 7.13947 36.2362 6.02437 36.2362C4.92817 36.2362 4.03042 36.6195 3.33112 37.3861C2.63182 38.1528 2.28217 39.1277 2.28217 40.3108C2.28217 41.4844 2.63182 42.4546 3.33112 43.2212C4.03042 43.9878 4.92817 44.3711 6.02437 44.3711C7.18672 44.3711 8.1459 43.9358 8.90189 43.0651L9.80911 44.144C8.85465 45.1852 7.59307 45.7058 6.02437 45.7058C4.52182 45.7058 3.27915 45.1946 2.29635 44.1724C1.31355 43.1502 0.822144 41.863 0.822144 40.3108C0.822144 38.7491 1.31355 37.4572 2.29635 36.4349C3.27915 35.4127 4.52182 34.9016 6.02437 34.9016Z" fill="#A6A6A6"/>
<path d="M18.6627 35.0862V36.4208H13.659V39.5868H18.0532V40.8787H13.659V44.1867H18.7761V45.5212H12.2131V35.0862H18.6627Z" fill="#A6A6A6"/>
<path d="M29.0551 45.5212H27.3541L24.916 41.5602H24.8877H22.8748V45.5212H21.429V35.0862H24.8877C25.9555 35.0862 26.8344 35.375 27.5242 35.9523C28.2141 36.5202 28.559 37.3105 28.559 38.3232C28.559 39.0615 28.37 39.6861 27.992 40.1973C27.614 40.7084 27.099 41.0775 26.4469 41.3046L29.0551 45.5212ZM22.8748 36.364V40.2824H24.7601C25.4878 40.2824 26.0595 40.1168 26.4753 39.7855C26.8911 39.4448 27.099 38.9573 27.099 38.3232C27.099 37.6986 26.8864 37.2158 26.4611 36.8751C26.0453 36.5343 25.4783 36.364 24.7601 36.364H22.8748Z" fill="#A6A6A6"/>
<path d="M39.1764 35.0862V36.3782H35.5193V45.5212H34.0734V36.3782H30.4304V35.0862H39.1764Z" fill="#A6A6A6"/>
<path d="M43.0804 35.0862V45.5212H41.6345V35.0862H43.0804Z" fill="#A6A6A6"/>
<path d="M52.6999 35.0862V36.4208H47.9087V39.7287H51.9628V41.0349H47.9087V45.5212H46.4629V35.0862H52.6999Z" fill="#A6A6A6"/>
<path d="M56.6131 35.0862V45.5212H55.1672V35.0862H56.6131Z" fill="#A6A6A6"/>
<path d="M66.4453 35.0862V36.4208H61.4415V39.5868H65.8357V40.8787H61.4415V44.1867H66.5587V45.5212H59.9956V35.0862H66.4453Z" fill="#A6A6A6"/>
<path d="M72.3866 35.0862C74.1443 35.0862 75.5145 35.5453 76.4973 36.4634C77.4896 37.372 77.9857 38.6498 77.9857 40.2966C77.9857 41.9435 77.4943 43.226 76.5115 44.144C75.5287 45.0621 74.1537 45.5212 72.3866 45.5212H69.2397V35.0862H72.3866ZM72.344 36.435H70.6856V44.1867H72.344C73.6859 44.1867 74.716 43.8506 75.4342 43.1787C76.1618 42.4972 76.5257 41.5365 76.5257 40.2966C76.5257 39.0757 76.1618 38.1292 75.4342 37.4572C74.7065 36.7757 73.6765 36.435 72.344 36.435Z" fill="#A6A6A6"/>
<path d="M53.8097 8.98328C54.4977 8.98328 55.0533 9.19199 55.4767 9.60941C55.9 10.0202 56.1117 10.5535 56.1117 11.2094C56.1117 11.6135 56.039 11.9779 55.8935 12.3026C55.7545 12.6273 55.5329 12.985 55.2286 13.3759L53.6608 15.3337H56.1911V16.4169H51.6168V16.3573L54.2662 12.7697C54.5043 12.4517 54.6696 12.1833 54.7623 11.9647C54.8549 11.7394 54.9012 11.481 54.9012 11.1895C54.9012 10.845 54.7986 10.5734 54.5936 10.3746C54.3885 10.1692 54.1272 10.0665 53.8097 10.0665C53.1681 10.0665 52.7778 10.4541 52.6389 11.2293L51.5474 10.9709C51.8054 9.64585 52.5595 8.98328 53.8097 8.98328Z" fill="#A6A6A6"/>
<path d="M61.7921 9.11249V9.17207L58.2002 16.4169H56.8904L60.0161 10.2156H56.7615V9.11249H61.7921Z" fill="#A6A6A6"/>
<path d="M68.7272 9.99695C69.1837 9.32123 69.8188 8.98328 70.6324 8.98328C71.446 8.98328 72.0811 9.32123 72.5376 9.99695C72.994 10.6728 73.2222 11.5937 73.2222 12.7598C73.2222 13.9258 72.994 14.85 72.5376 15.5325C72.0811 16.2082 71.446 16.5462 70.6324 16.5462C69.8188 16.5462 69.1837 16.2082 68.7272 15.5325C68.2708 14.85 68.0426 13.9258 68.0426 12.7598C68.0426 11.5937 68.2708 10.6728 68.7272 9.99695ZM71.6544 10.7821C71.4295 10.2984 71.0888 10.0566 70.6324 10.0566C70.176 10.0566 69.832 10.2984 69.6005 10.7821C69.3756 11.2591 69.2631 11.9184 69.2631 12.7598C69.2631 13.6078 69.3756 14.2737 69.6005 14.7573C69.832 15.2343 70.176 15.4728 70.6324 15.4728C71.0888 15.4728 71.4295 15.2343 71.6544 14.7573C71.886 14.2737 72.0017 13.6078 72.0017 12.7598C72.0017 11.9184 71.886 11.2591 71.6544 10.7821Z" fill="#A6A6A6"/>
<path d="M76.6236 8.98328V16.4169H75.423V11.0902L74.2323 11.766L73.7163 10.6827L76.5839 8.98328H76.6236Z" fill="#A6A6A6"/>
<path d="M53.8097 20.341C54.4977 20.341 55.0533 20.5497 55.4767 20.9671C55.9 21.3779 56.1117 21.9112 56.1117 22.5672C56.1117 22.9713 56.039 23.3357 55.8935 23.6604C55.7545 23.985 55.5329 24.3428 55.2286 24.7336L53.6608 26.6914H56.1911V27.7747H51.6168V27.7151L54.2662 24.1274C54.5043 23.8094 54.6696 23.5411 54.7623 23.3224C54.8549 23.0972 54.9012 22.8388 54.9012 22.5473C54.9012 22.2027 54.7986 21.9311 54.5936 21.7324C54.3885 21.527 54.1272 21.4243 53.8097 21.4243C53.1681 21.4243 52.7778 21.8119 52.6389 22.587L51.5474 22.3287C51.8054 21.0036 52.5595 20.341 53.8097 20.341Z" fill="#A6A6A6"/>
<path d="M57.5548 21.3548C58.0112 20.679 58.6463 20.341 59.46 20.341C60.2736 20.341 60.9086 20.679 61.3651 21.3548C61.8215 22.0305 62.0497 22.9515 62.0497 24.1175C62.0497 25.2835 61.8215 26.2078 61.3651 26.8902C60.9086 27.566 60.2736 27.9039 59.46 27.9039C58.6463 27.9039 58.0112 27.566 57.5548 26.8902C57.0984 26.2078 56.8701 25.2835 56.8701 24.1175C56.8701 22.9515 57.0984 22.0305 57.5548 21.3548ZM60.4819 22.1398C60.257 21.6562 59.9163 21.4143 59.46 21.4143C59.0035 21.4143 58.6595 21.6562 58.428 22.1398C58.2031 22.6168 58.0906 23.2761 58.0906 24.1175C58.0906 24.9656 58.2031 25.6314 58.428 26.115C58.6595 26.592 59.0035 26.8305 59.46 26.8305C59.9163 26.8305 60.257 26.592 60.4819 26.115C60.7135 25.6314 60.8292 24.9656 60.8292 24.1175C60.8292 23.2761 60.7135 22.6168 60.4819 22.1398Z" fill="#A6A6A6"/>
<path d="M65.4511 20.341V27.7747H64.2505V22.4479L63.0598 23.1237L62.5438 22.0405L65.4114 20.341H65.4511Z" fill="#A6A6A6"/>
<path d="M67.8 9.11249V9.17207L64.208 16.4169H62.8983L66.0239 10.2156H62.7693V9.11249H67.8Z" fill="#A6A6A6"/>
<path d="M69.3647 20.341C70.0471 20.341 70.6235 20.5696 71.0938 21.0268C71.5643 21.4839 71.7994 22.0636 71.7994 22.766C71.7994 23.2562 71.6471 23.7399 71.3423 24.2169L69.0466 27.7747H67.6951L69.3448 25.2007C68.6624 25.1942 68.0826 24.9589 67.6056 24.4951C67.1352 24.0314 66.9 23.455 66.9 22.766C66.9 22.0636 67.1385 21.4839 67.6155 21.0268C68.0926 20.5696 68.6756 20.341 69.3647 20.341ZM69.3647 24.1274C69.7092 24.1274 69.9974 24.0016 70.2293 23.7498C70.4611 23.4914 70.5771 23.1634 70.5771 22.766C70.5771 22.3618 70.4611 22.0371 70.2293 21.792C70.004 21.5403 69.7158 21.4143 69.3647 21.4143C69.0135 21.4143 68.7187 21.5403 68.4802 21.792C68.2417 22.0438 68.1224 22.3684 68.1224 22.766C68.1224 23.1634 68.2417 23.4914 68.4802 23.7498C68.7187 24.0016 69.0135 24.1274 69.3647 24.1274Z" fill="#A6A6A6"/>
</g>
</svg>
