<svg width="72" height="72" viewBox="0 0 72 72" fill="none" xmlns="http://www.w3.org/2000/svg">
<path d="M48.9617 0H0V49.2022L22.7978 72H72V23.0383L48.9617 0Z" fill="white"/>
<path d="M48.3716 1.50822L70.5136 23.6503V70.5136H23.4098L1.50822 48.5902V1.50822H48.3716ZM48.9617 0H0V49.2022L22.7978 72H72V23.0383L48.9617 0Z" fill="#A5A5A5"/>
<path d="M11.694 40.5465V43.1913H10.2076V36H12.9617C13.6174 35.9563 14.2513 36.1749 14.7541 36.5902C15.1038 36.9181 15.3442 37.3552 15.4317 37.8142C15.519 38.2732 15.4754 38.776 15.2787 39.2131C15.0819 39.6503 14.754 40.0218 14.3388 40.2623C13.9234 40.5027 13.4426 40.6121 12.9617 40.5465H11.694ZM11.694 39.4098H12.8087C12.9617 39.4317 13.1147 39.4098 13.2458 39.3661C13.377 39.3225 13.5082 39.235 13.6174 39.1257C13.7923 38.8852 13.8797 38.5792 13.8797 38.2951C13.8797 37.9891 13.7923 37.705 13.6174 37.4645C13.3988 37.2678 13.1147 37.1585 12.8087 37.1585H11.7158L11.694 39.4098ZM21.7267 43.1913L21.2458 41.5957H18.7978L18.3169 43.1913H16.7213L19.235 36H20.9836L23.4317 43.1913H21.7267ZM19.0819 40.4372H20.8742L19.9781 37.4426L19.0819 40.4372ZM25.5738 43.1913V36H28.3278C28.9836 35.9563 29.6175 36.1749 30.1202 36.5902C30.5355 37.0055 30.7759 37.5956 30.7759 38.1858C30.7759 38.6011 30.6447 38.9946 30.4043 39.3225C30.1639 39.6722 29.836 39.9345 29.4426 40.1312L31.2349 43.235H29.6393L28.0436 40.4153H27.0164V43.1694H25.5738V43.1913ZM27.0601 39.2787H28.153C28.2841 39.3006 28.3934 39.3006 28.5245 39.2568C28.6557 39.235 28.765 39.1695 28.8524 39.1038C28.9617 39.0382 29.0272 38.929 29.0929 38.8197C29.1585 38.7104 29.2021 38.6011 29.224 38.47V38.164C29.2677 37.9235 29.2021 37.6612 29.0491 37.4645C28.8961 37.2678 28.6776 37.1366 28.4152 37.0929H27.1038V39.3006L27.0601 39.2787ZM34.9289 43.1913V37.2459H32.6994V36H38.6447V37.2459H36.4152V43.1913H34.9289ZM42.4262 38.2077V43.1913H41.0492V36H42.7322L45.6611 41.0492V36H47.0382V43.1913H45.3551L42.4262 38.2077ZM49.8142 43.1913V36H54.5574V37.2022H51.3661V38.8852H53.9453V40.0875H51.3661V42.0109H54.5574V43.2132H49.8142V43.1913ZM57.2896 43.1913V36H60.0437C60.6994 35.9563 61.3333 36.1749 61.836 36.5902C62.2513 37.0055 62.4918 37.5956 62.4918 38.1858C62.4918 38.6011 62.3606 38.9946 62.142 39.3225C61.9016 39.6722 61.5738 39.9345 61.1803 40.1312L62.9726 43.235H61.377L59.7814 40.4153H58.7759V43.1694H57.2896V43.1913ZM58.7978 39.2787H59.8688C60.1093 39.3225 60.3715 39.2568 60.5683 39.1038C60.765 38.9508 60.8961 38.7322 60.9399 38.47V38.164C60.9835 37.9235 60.918 37.6612 60.765 37.4645C60.612 37.2678 60.3934 37.1366 60.1529 37.0929H58.7759L58.7978 39.2787Z" fill="#A5A5A5"/>
<path d="M15.9999 16.4809C15.9781 16.7213 16.0218 16.9836 16.1311 17.2022C16.1967 17.377 16.3059 17.6175 16.3716 17.7924C16.3933 17.8143 16.4152 17.8579 16.4152 17.8798C16.4152 17.9016 16.4371 17.9454 16.4152 17.9673C16.4152 18.0765 16.3497 18.142 16.2403 18.2076L15.6939 18.5574H15.5191C15.4753 18.5574 15.4316 18.5574 15.3879 18.5355C15.3442 18.5136 15.3005 18.4918 15.2786 18.4481C15.1693 18.3388 15.0601 18.2295 14.9726 18.0984C14.8852 17.9454 14.7977 17.7924 14.7322 17.6175C14.448 17.9673 14.0765 18.2733 13.6611 18.4699C13.2459 18.6666 12.7869 18.776 12.3278 18.776C12.0436 18.7978 11.7376 18.7541 11.4535 18.6448C11.1694 18.5355 10.9289 18.3825 10.7103 18.1639C10.5136 17.9454 10.3388 17.7049 10.2513 17.4208C10.142 17.1366 10.0983 16.8524 10.1202 16.5683C10.1202 16.2623 10.1639 15.9344 10.295 15.6503C10.4262 15.3662 10.601 15.1038 10.8415 14.8852C11.4098 14.4481 12.1092 14.2296 12.8305 14.2296C13.0929 14.2296 13.377 14.2513 13.6392 14.2951L14.5355 14.4699V13.8798C14.5573 13.6393 14.5573 13.3989 14.4917 13.1803C14.4262 12.9617 14.3169 12.7432 14.1639 12.5683C13.989 12.4153 13.7705 12.306 13.53 12.2623C13.3114 12.1967 13.071 12.1749 12.8305 12.2186C12.5245 12.2405 12.2185 12.2623 11.9344 12.3279C11.6284 12.3935 11.3224 12.5027 11.0382 12.6339C10.9289 12.6995 10.8633 12.6995 10.7322 12.765H10.6229C10.5136 12.765 10.448 12.6995 10.448 12.5246V12.0875C10.448 11.9781 10.4699 11.8689 10.5136 11.7815C10.5792 11.7159 10.6666 11.6502 10.754 11.6066C11.06 11.4317 11.4098 11.3005 11.7595 11.2569C12.1748 11.1475 12.5901 11.082 13.0272 11.082C13.7922 11.0164 14.5355 11.2569 15.1256 11.7377C15.3661 12 15.5409 12.3278 15.6502 12.6557C15.7595 13.0055 15.8032 13.3552 15.7813 13.7049L15.9999 16.4809ZM12.7212 17.683C12.9835 17.6612 13.2677 17.6394 13.53 17.5738C13.836 17.4426 14.0983 17.2678 14.3387 17.0273C14.4917 16.8743 14.5792 16.6775 14.6447 16.4809C14.6885 16.2404 14.7103 16 14.7103 15.7595V15.3879C14.2076 15.2787 13.7049 15.2131 13.2021 15.2131C12.7869 15.1694 12.3496 15.2787 11.9999 15.5192C11.7595 15.7596 11.6284 16.0655 11.6065 16.3934C11.5846 16.7213 11.6939 17.0492 11.8906 17.3115C11.9781 17.4426 12.1092 17.5519 12.2622 17.6175C12.4152 17.683 12.5682 17.7049 12.7431 17.6612H12.7212V17.683ZM19.2568 18.6011C19.1475 18.6011 19.0163 18.6011 18.9508 18.5355C18.8852 18.4481 18.8196 18.3388 18.7759 18.2295L16.8524 11.9345C16.8087 11.847 16.7868 11.7377 16.7868 11.6284C16.7868 11.5191 16.8524 11.4536 16.8961 11.4536H17.7048C17.8142 11.4536 17.9453 11.4536 18.0109 11.5191C18.0983 11.6066 18.142 11.7159 18.1857 11.8251L19.5628 17.1585L20.8305 11.8251C20.8305 11.7596 20.8524 11.7159 20.8743 11.6502C20.8961 11.6066 20.9399 11.5629 21.0054 11.5191C21.0929 11.4754 21.2021 11.4536 21.3114 11.4536H21.9671C22.0765 11.4317 22.1857 11.4536 22.2731 11.5191C22.3387 11.6066 22.4043 11.7159 22.448 11.8251L23.7157 17.2896L25.0928 11.8251C25.0928 11.7596 25.1147 11.694 25.1366 11.6502C25.1584 11.6066 25.2021 11.5629 25.2677 11.5191C25.3551 11.4754 25.4644 11.4536 25.5737 11.4536H26.3824C26.4917 11.4536 26.5573 11.5191 26.5573 11.5847V11.7596C26.5573 11.8251 26.4917 11.8689 26.4917 11.9345L24.5682 18.1639C24.5682 18.2295 24.5463 18.2951 24.5246 18.3388C24.5027 18.3825 24.4371 18.4263 24.3933 18.4699C24.3278 18.5793 24.2185 18.5793 24.0873 18.5793H23.3661C23.2567 18.5793 23.1256 18.5793 23.0601 18.5136C22.9945 18.4481 22.9507 18.3388 22.8852 18.2076L21.6174 12.9836L20.3715 18.2076C20.3715 18.2733 20.3496 18.3388 20.3278 18.3825C20.3059 18.4262 20.2404 18.4699 20.1966 18.5136C20.1311 18.5574 20.0436 18.5793 19.9563 18.5793H19.2568V18.6011ZM29.6393 18.8415C29.224 18.8415 28.8087 18.7978 28.3934 18.7323C28.0655 18.6666 27.7376 18.5574 27.4317 18.4263C27.3442 18.3825 27.2568 18.3169 27.213 18.2514C27.1693 18.1639 27.1257 18.0546 27.1474 17.9673V17.5519C27.1474 17.377 27.213 17.3115 27.3223 17.3115H27.4317C27.4972 17.3115 27.5409 17.377 27.6065 17.377C27.8907 17.5082 28.1967 17.5956 28.5027 17.683C28.8087 17.7486 29.1365 17.7924 29.4644 17.7924C29.8797 17.8143 30.295 17.7049 30.6666 17.4864C30.7977 17.3989 30.907 17.2678 30.9726 17.1366C31.0382 17.0054 31.0819 16.8524 31.0819 16.6775C31.1037 16.5683 31.0819 16.459 31.0382 16.3716C30.9945 16.2842 30.9289 16.1967 30.8415 16.1312C30.601 15.9344 30.3387 15.7814 30.0327 15.7158L28.8305 15.3662C28.3278 15.2349 27.8688 14.9508 27.519 14.5574C27.2568 14.2077 27.1038 13.7923 27.1038 13.3552C27.1038 13.0273 27.1912 12.7213 27.3442 12.459C27.672 11.9345 28.1966 11.5629 28.7868 11.388C29.1147 11.2787 29.4644 11.235 29.7923 11.2569C29.9671 11.2569 30.1639 11.2787 30.3387 11.3224C30.5136 11.3442 30.7104 11.3661 30.8852 11.4317C31.06 11.4972 31.1912 11.4972 31.3661 11.541C31.5409 11.6066 31.6065 11.6066 31.7157 11.6502C31.8032 11.694 31.8906 11.7596 31.9562 11.8251C32 11.9126 32.0218 12.0219 32.0218 12.1311V12.4809C32.0218 12.6557 31.9562 12.7213 31.847 12.7213C31.7376 12.7213 31.6284 12.6776 31.541 12.612C31.0382 12.3935 30.4917 12.2841 29.9453 12.306C29.5737 12.306 29.2021 12.3716 28.8743 12.5465C28.7431 12.612 28.6338 12.7213 28.5683 12.8525C28.5027 12.9836 28.4808 13.1366 28.5027 13.2677C28.5027 13.3771 28.5027 13.4863 28.5464 13.5956C28.5901 13.7049 28.6556 13.7923 28.7431 13.8579C28.9835 14.0983 29.3114 14.2296 29.6393 14.2732L30.7759 14.6229C31.2567 14.7759 31.694 15.0383 32.0218 15.4317C32.2622 15.7595 32.3934 16.1749 32.3715 16.5683C32.3715 16.8962 32.306 17.2459 32.1311 17.53C32 17.8142 31.7814 18.0765 31.541 18.2514C31.2567 18.4481 30.9507 18.6011 30.6447 18.7323C30.3169 18.8196 29.9671 18.8415 29.6174 18.8415H29.6393Z" fill="#A5A5A5"/>
<path d="M31.2131 22.7323C28.2841 24.6994 24.8306 25.7486 21.3115 25.7267C16.8524 25.7267 12.5683 24.0874 9.24588 21.0929C9.00549 20.8524 9.24588 20.5464 9.55188 20.7432C13.2022 22.8853 17.377 24 21.6175 23.9781C24.7869 23.9563 27.9344 23.3443 30.8633 22.1202C31.2568 21.9453 31.6503 22.4262 31.2131 22.7323ZM31.6284 24.5464C31.5191 24.7869 31.7596 24.8961 31.9999 24.7213C33.4426 23.5191 33.7923 21.0054 33.4863 20.6338C33.1803 20.2842 30.6667 19.9781 29.1585 21.0492C28.918 21.224 28.9836 21.4644 29.224 21.3989C30.0327 21.2896 31.9999 21.0492 32.3497 21.53C32.6994 22.0328 31.9344 23.7595 31.6284 24.5464Z" fill="#A5A5A5"/>
</svg>
