<svg width="24" height="24" viewBox="0 0 24 24" fill="none" xmlns="http://www.w3.org/2000/svg">
<path d="M12 2.00098C9.34791 2.00098 6.80447 3.0545 4.92918 4.92979C3.05389 6.80508 2.00037 9.34852 2.00037 12.0006C2.00037 16.4202 4.86957 20.1702 8.84037 21.501C9.33957 21.5802 9.50037 21.2706 9.50037 21.0006V19.311C6.72957 19.911 6.14037 17.9706 6.14037 17.9706C5.67957 16.8102 5.03037 16.5006 5.03037 16.5006C4.11957 15.8802 5.09997 15.9006 5.09997 15.9006C6.09957 15.9702 6.62997 16.9302 6.62997 16.9302C7.49997 18.4506 8.96997 18.0006 9.53997 17.7606C9.62997 17.1102 9.89037 16.671 10.17 16.4202C7.94997 16.1706 5.61957 15.3102 5.61957 11.5002C5.61957 10.3902 5.99997 9.50098 6.65037 8.79058C6.54957 8.54098 6.20037 7.50058 6.74997 6.15058C6.74997 6.15058 7.58997 5.88058 9.50037 7.17058C10.315 6.94908 11.1557 6.83809 12 6.84058C12.8496 6.84058 13.71 6.95098 14.4996 7.17058C16.41 5.88058 17.25 6.15058 17.25 6.15058C17.7996 7.50058 17.4504 8.54098 17.3496 8.79058C18 9.50098 18.3804 10.3902 18.3804 11.5002C18.3804 15.321 16.0404 16.161 13.8096 16.4106C14.1696 16.7202 14.4996 17.331 14.4996 18.261V21.0006C14.4996 21.2706 14.6604 21.591 15.1704 21.501C19.14 20.1606 21.9996 16.4202 21.9996 12.0006C21.9996 9.34852 20.946 6.80508 19.0708 4.92979C17.1955 3.0545 14.652 2.00098 12 2.00098Z" fill="#8D8D90"/>
</svg>
