<svg width="152" height="50" viewBox="0 0 152 50" fill="none" xmlns="http://www.w3.org/2000/svg">
<path fill-rule="evenodd" clip-rule="evenodd" d="M91.3002 36.6445L87.7974 29.9854L84.2561 36.6445H91.3002ZM58.6974 34.9881V39.1452H69.1672L69.3982 39.0683H69.4752C69.7106 39.0022 69.9146 38.8758 70.1295 38.7603L70.245 38.6833L70.399 38.5294L70.5144 38.3754L70.6684 38.2214L70.7454 38.0687C70.9122 37.8975 70.9443 37.6274 71.0148 37.4144C71.0456 36.7639 70.9956 36.2545 70.5144 35.7592L70.399 35.6052L70.245 35.4898L70.0525 35.3358L69.8601 35.2588L69.6676 35.1433L69.5906 35.1049L69.4752 35.0651C65.9531 34.6032 62.3317 34.7219 58.6974 34.9881ZM58.6974 28.3289V32.4861H69.1672L69.2827 32.4476H69.3982L69.4752 32.4091C69.7061 32.3257 69.9531 32.241 70.1295 32.0627C70.4022 31.9793 70.6222 31.654 70.7454 31.4083C70.9186 31.2248 70.9571 30.9483 71.0148 30.7155C71.0443 30.0226 70.9872 29.6473 70.5144 29.0988L70.399 28.9448L70.245 28.7909L70.0525 28.7139L69.6676 28.4829L69.5906 28.4444H69.4752L69.3982 28.4059L69.2827 28.3674H69.1672L69.0517 28.3277H58.6974V28.3289ZM100.115 25.827H104.503L116.859 37.4901V25.8282H121.247V41.6485H116.859L104.503 29.9854V41.6485H100.115V25.8282V25.827ZM130.601 33.7563L141.955 25.8282H137.105L127.443 32.4874V25.8282H123.017V41.6485H127.443V34.9881L137.105 41.6472H141.955L130.599 33.7563H130.601ZM132.718 8.35156H137.106V15.0107L146.806 8.35156H151.656L140.301 16.2809L151.656 24.1718H146.806L137.106 17.5127V24.1718H132.718V8.35284V8.35156ZM123.018 17.5127V24.1718H118.63V17.5139L110.238 8.35284H114.665L120.824 15.012L126.983 8.35284H131.409L123.018 17.5139V17.5127ZM100.115 8.35156H104.503V21.6698H116.859V24.1718H100.115V8.35284V8.35156ZM87.7974 12.5087L91.3002 19.1678H84.2561L87.7974 12.5087ZM93.9562 24.1718H98.3443L89.9915 8.35156H85.5649L77.2121 24.1718H81.6002L82.9089 21.6698H92.6089L93.9562 24.1718ZM54.3093 8.35156H58.6974V15.0107H71.0148V8.35284H75.4414V24.1731H71.0148V17.5139H58.6974V24.1731H54.3093V8.35284V8.35156ZM54.3093 25.827H71.4767L71.6692 25.8655H71.9002L72.0926 25.9052L72.2851 25.9822L72.4775 26.0207L72.7085 26.0977C73.1986 26.2626 73.6535 26.5352 74.0557 26.8675C74.8666 27.6117 75.3798 28.4906 75.4414 29.6005C75.5377 31.9472 73.5232 33.7397 71.2458 33.7576C73.3917 33.6774 75.4568 35.4962 75.4414 37.6838C75.4594 38.7552 74.9686 39.7579 74.2097 40.4937C73.8119 40.8607 73.3744 41.1609 72.8625 41.3406L72.7085 41.4176L72.4775 41.4561L72.2851 41.533L72.0926 41.5715L71.9002 41.61L71.6692 41.6485H54.3093V25.8282V25.827ZM81.6002 41.6472H77.2121L85.5649 25.827H89.9915L98.3443 41.6472H93.9562L92.6089 39.1452H82.9089L81.6002 41.6472Z" fill="#E9E9E9"/>
<path fill-rule="evenodd" clip-rule="evenodd" d="M42.2235 10.4313V10.4301H36.3342L26.8267 1.46142L17.3191 10.4301H11.3913V16.0499L4.86176 22.2344L1.92229 25.0179L1.92224 25.0199L11.3913 33.9872V39.5686H17.3191L17.4913 39.731L19.5132 41.6465L26.2559 47.9988L26.8267 48.5373L36.2265 39.6703L36.3343 39.5699H42.2236V33.9885L44.4561 31.9099L51.7312 25.0199L51.7311 25.0186L51.407 24.7128L44.4561 18.1298L42.3234 16.1441L42.2236 16.05L42.2235 10.4313ZM17.9735 8.35279H9.1973V16.6273L0.344116 25.0186L9.1973 33.3714V41.6472H17.9735L26.8267 50L35.6799 41.6472H44.4561V33.3714L53.3093 25.0186L44.4561 16.6286V8.35279H35.6799L26.8267 0L17.9735 8.35279ZM26.5005 4.73316L5.00166 25.0186L5.01612 25.0322L11.3913 31.0234V31.0246C13.7714 28.3924 16.82 26.3331 20.206 25.2508C22.1747 24.4546 23.9867 24.3517 25.7144 24.2535C27.2511 24.1663 28.7211 24.0828 30.1755 23.5187C32.7307 22.5692 34.7304 20.2917 35.3334 17.6294C35.8672 14.6205 34.9714 12.5129 33.4515 10.6872L29.502 6.95403C28.5943 6.16448 27.6775 5.34128 26.8267 4.4266L26.5005 4.73316ZM42.2225 18.9778C39.7899 21.7999 36.5005 23.8511 32.9469 24.9429C31.0191 25.5164 29.4069 25.7333 27.4041 25.8282C25.7989 25.8057 24.1342 26.0553 22.708 26.829C20.1355 28.1583 18.309 30.6686 18.166 33.6036C18.0658 36.2269 19.0171 38.0181 20.4243 39.5708L22.5782 41.6031C22.7704 41.7681 22.965 41.9335 23.1611 42.1003C24.3933 43.1477 25.6847 44.2455 26.8214 45.6069L26.8267 45.6119L29.0621 43.4989L33.2164 39.5699L42.2235 31.0246L48.3878 25.2317L48.6126 25.0192L46.187 22.7252L42.2225 18.9778Z" fill="#E9E9E9"/>
</svg>
