<svg width="76" height="30" viewBox="0 0 76 30" fill="none" xmlns="http://www.w3.org/2000/svg">
<path fill-rule="evenodd" clip-rule="evenodd" d="M44.9648 19.5835H22.3833V16.2607H44.987L44.9648 19.5835Z" fill="#E9E9E9"/>
<path fill-rule="evenodd" clip-rule="evenodd" d="M2.40719 10.0996L0.69043 13.4224H22.3633L22.3814 10.0996H2.40719Z" fill="#E9E9E9"/>
<path fill-rule="evenodd" clip-rule="evenodd" d="M22.3833 13.4205H44.9749V10.0977H22.3833V13.4205Z" fill="#E9E9E9"/>
<path fill-rule="evenodd" clip-rule="evenodd" d="M55.8628 29.9923C49.8582 29.9923 44.9736 25.1066 44.9736 19.103V2.09647L50.3573 0.484375V19.103C50.3573 22.137 52.8268 24.6085 55.8628 24.6085C58.8978 24.6085 61.3663 22.137 61.3663 19.103V2.09647L66.75 0.484375V19.103C66.75 25.1066 61.8654 29.9923 55.8628 29.9923Z" fill="#E9E9E9"/>
<path fill-rule="evenodd" clip-rule="evenodd" d="M73.6271 13.4224H50.3613V10.0996H75.3096L73.6271 13.4224Z" fill="#E9E9E9"/>
<path fill-rule="evenodd" clip-rule="evenodd" d="M22.3633 19.5835H0.69043L2.40719 16.2607H22.3824L22.3633 19.5835Z" fill="#E9E9E9"/>
<path fill-rule="evenodd" clip-rule="evenodd" d="M50.356 16.2607H75.3091V19.5835H50.356V16.2607Z" fill="#E9E9E9"/>
<path fill-rule="evenodd" clip-rule="evenodd" d="M73.6288 19.5835H50.356V16.2607H75.3094L73.6288 19.5835Z" fill="#E9E9E9"/>
<path fill-rule="evenodd" clip-rule="evenodd" d="M9.84131 29.6328V2.1385L15.2251 0.525391V29.6328H9.84131Z" fill="#E9E9E9"/>
<path fill-rule="evenodd" clip-rule="evenodd" d="M32.9629 30C32.6781 30 32.3913 29.991 32.0995 29.9718C26.591 29.6005 20.7051 25.4716 20.7051 14.997C20.7051 4.52239 26.591 0.394526 32.0975 0.0221928C37.0193 -0.305863 40.3502 3.08841 41.5538 4.56365L37.4027 7.95088C36.5595 6.91841 34.7964 5.20769 32.4578 5.36869C28.3953 5.64241 26.0647 9.1514 26.0647 14.997C26.0647 20.8416 28.3933 24.3516 32.4578 24.6253C36.0865 24.8669 39.046 22.4185 39.0732 22.3934L42.5691 26.4548C42.392 26.6068 38.3829 30 32.9629 30Z" fill="#E9E9E9"/>
</svg>
