<svg width="1600" height="2045" viewBox="0 0 1600 2045" fill="none" xmlns="http://www.w3.org/2000/svg">
	<circle cx="800" cy="8" r="7" fill="#CFEC57" stroke="#CFEC57" stroke-width="2"/>
	<rect x="799.5" y="13.5" width="1" height="1819" fill="#CFEC57" stroke="#CFEC57"/>
	<path d="M680.293 177.793C679.902 178.183 679.902 178.817 680.293 179.207L686.657 185.571C687.047 185.962 687.681 185.962 688.071 185.571C688.462 185.181 688.462 184.547 688.071 184.157L682.414 178.5L688.071 172.843C688.462 172.453 688.462 171.819 688.071 171.429C687.681 171.038 687.047 171.038 686.657 171.429L680.293 177.793ZM799 127C799 142.854 795.409 153.821 789.21 161.414C783.011 169.008 774.092 173.365 763.16 175.773C752.216 178.185 739.344 178.625 725.34 178.453C711.409 178.282 696.227 177.5 681 177.5V179.5C696.273 179.5 711.216 180.28 725.316 180.453C739.343 180.625 752.409 180.19 763.59 177.727C774.783 175.26 784.177 170.742 790.759 162.679C797.341 154.616 801 143.146 801 127H799Z" fill="#CFEC57"/>
	<path d="M680.293 1141.79C679.902 1142.18 679.902 1142.82 680.293 1143.21L686.657 1149.57C687.047 1149.96 687.681 1149.96 688.071 1149.57C688.462 1149.18 688.462 1148.55 688.071 1148.16L682.414 1142.5L688.071 1136.84C688.462 1136.45 688.462 1135.82 688.071 1135.43C687.681 1135.04 687.047 1135.04 686.657 1135.43L680.293 1141.79ZM799 1091C799 1106.85 795.409 1117.82 789.21 1125.41C783.011 1133.01 774.092 1137.36 763.16 1139.77C752.216 1142.18 739.344 1142.62 725.34 1142.45C711.409 1142.28 696.227 1141.5 681 1141.5V1143.5C696.273 1143.5 711.216 1144.28 725.316 1144.45C739.343 1144.63 752.409 1144.19 763.59 1141.73C774.783 1139.26 784.177 1134.74 790.759 1126.68C797.341 1118.62 801 1107.15 801 1091H799Z" fill="#CFEC57"/>
	<path d="M680.293 659.793C679.902 660.183 679.902 660.817 680.293 661.207L686.657 667.571C687.047 667.962 687.681 667.962 688.071 667.571C688.462 667.181 688.462 666.547 688.071 666.157L682.414 660.5L688.071 654.843C688.462 654.453 688.462 653.819 688.071 653.429C687.681 653.038 687.047 653.038 686.657 653.429L680.293 659.793ZM799 609C799 624.854 795.409 635.821 789.21 643.414C783.011 651.008 774.092 655.365 763.16 657.773C752.216 660.185 739.344 660.625 725.34 660.453C711.409 660.282 696.227 659.5 681 659.5V661.5C696.273 661.5 711.216 662.28 725.316 662.453C739.343 662.625 752.409 662.19 763.59 659.727C774.783 657.26 784.177 652.742 790.759 644.679C797.341 636.616 801 625.146 801 609H799Z" fill="#CFEC57"/>
	<path d="M680.293 1623.79C679.902 1624.18 679.902 1624.82 680.293 1625.21L686.657 1631.57C687.047 1631.96 687.681 1631.96 688.071 1631.57C688.462 1631.18 688.462 1630.55 688.071 1630.16L682.414 1624.5L688.071 1618.84C688.462 1618.45 688.462 1617.82 688.071 1617.43C687.681 1617.04 687.047 1617.04 686.657 1617.43L680.293 1623.79ZM799 1573C799 1588.85 795.409 1599.82 789.21 1607.41C783.011 1615.01 774.092 1619.36 763.16 1621.77C752.216 1624.18 739.344 1624.62 725.34 1624.45C711.409 1624.28 696.227 1623.5 681 1623.5V1625.5C696.273 1625.5 711.216 1626.28 725.316 1626.45C739.343 1626.63 752.409 1626.19 763.59 1623.73C774.783 1621.26 784.177 1616.74 790.759 1608.68C797.341 1600.62 801 1589.15 801 1573H799Z" fill="#CFEC57"/>
	<path d="M919.707 436.793C920.098 437.183 920.098 437.817 919.707 438.207L913.343 444.571C912.953 444.962 912.319 444.962 911.929 444.571C911.538 444.181 911.538 443.547 911.929 443.157L917.586 437.5L911.929 431.843C911.538 431.453 911.538 430.819 911.929 430.429C912.319 430.038 912.953 430.038 913.343 430.429L919.707 436.793ZM801 386C801 401.854 804.591 412.821 810.79 420.414C816.989 428.008 825.908 432.365 836.84 434.773C847.784 437.185 860.656 437.625 874.66 437.453C888.591 437.282 903.773 436.5 919 436.5V438.5C903.727 438.5 888.784 439.28 874.684 439.453C860.657 439.625 847.591 439.19 836.41 436.727C825.217 434.26 815.823 429.742 809.241 421.679C802.659 413.616 799 402.146 799 386H801Z" fill="#CFEC57"/>
	<path d="M919.707 1400.79C920.098 1401.18 920.098 1401.82 919.707 1402.21L913.343 1408.57C912.953 1408.96 912.319 1408.96 911.929 1408.57C911.538 1408.18 911.538 1407.55 911.929 1407.16L917.586 1401.5L911.929 1395.84C911.538 1395.45 911.538 1394.82 911.929 1394.43C912.319 1394.04 912.953 1394.04 913.343 1394.43L919.707 1400.79ZM801 1350C801 1365.85 804.591 1376.82 810.79 1384.41C816.989 1392.01 825.908 1396.36 836.84 1398.77C847.784 1401.18 860.656 1401.62 874.66 1401.45C888.591 1401.28 903.773 1400.5 919 1400.5V1402.5C903.727 1402.5 888.784 1403.28 874.684 1403.45C860.657 1403.63 847.591 1403.19 836.41 1400.73C825.217 1398.26 815.823 1393.74 809.241 1385.68C802.659 1377.62 799 1366.15 799 1350H801Z" fill="#CFEC57"/>
	<path d="M919.707 918.793C920.098 919.183 920.098 919.817 919.707 920.207L913.343 926.571C912.953 926.962 912.319 926.962 911.929 926.571C911.538 926.181 911.538 925.547 911.929 925.157L917.586 919.5L911.929 913.843C911.538 913.453 911.538 912.819 911.929 912.429C912.319 912.038 912.953 912.038 913.343 912.429L919.707 918.793ZM801 868C801 883.854 804.591 894.821 810.79 902.414C816.989 910.008 825.908 914.365 836.84 916.773C847.784 919.185 860.656 919.625 874.66 919.453C888.591 919.282 903.773 918.5 919 918.5V920.5C903.727 920.5 888.784 921.28 874.684 921.453C860.657 921.625 847.591 921.19 836.41 918.727C825.217 916.26 815.823 911.742 809.241 903.679C802.659 895.616 799 884.146 799 868H801Z" fill="#CFEC57"/>
	<path d="M919.707 1882.79C920.098 1883.18 920.098 1883.82 919.707 1884.21L913.343 1890.57C912.953 1890.96 912.319 1890.96 911.929 1890.57C911.538 1890.18 911.538 1889.55 911.929 1889.16L917.586 1883.5L911.929 1877.84C911.538 1877.45 911.538 1876.82 911.929 1876.43C912.319 1876.04 912.953 1876.04 913.343 1876.43L919.707 1882.79ZM801 1832C801 1847.85 804.591 1858.82 810.79 1866.41C816.989 1874.01 825.908 1878.36 836.84 1880.77C847.784 1883.18 860.656 1883.62 874.66 1883.45C888.591 1883.28 903.773 1882.5 919 1882.5V1884.5C903.727 1884.5 888.784 1885.28 874.684 1885.45C860.657 1885.63 847.591 1885.19 836.41 1882.73C825.217 1880.26 815.823 1875.74 809.241 1867.68C802.659 1859.62 799 1848.15 799 1832H801Z" fill="#CFEC57"/>
	</svg>
	