<svg width="150" height="40" viewBox="0 0 150 40" fill="none" xmlns="http://www.w3.org/2000/svg">
<path fill-rule="evenodd" clip-rule="evenodd" d="M39.5205 0.683594H0.203918V40.0001H39.5205V0.683594ZM8.13845 36.3043L3.30634 31.3786L14.8627 19.9865L12.5893 17.713V13.189L11.4291 12.3131V15.7715L9.55821 17.3342L4.32435 11.6969L2.61945 13.1175C2.78543 7.38658 7.5937 1.51179 12.2828 5.37271L18.5117 11.3879L17.0434 12.7149L19.8378 15.4625L22.7276 12.6442L21.5666 11.2466L27.2516 5.61019C32.1305 0.873413 38.0283 9.42344 37.0094 13.189L35.2807 11.8629L29.9047 17.2389L28.1044 15.7706V12.171L26.7068 13.355V17.9496L24.4801 20.1048L36.0629 31.6858L31.1601 36.5409L19.4599 24.8177L8.13845 36.3043Z" fill="#E9E9E9"/>
<path fill-rule="evenodd" clip-rule="evenodd" d="M49.5625 5.39643V8.80708H51.0308C53.0438 8.42831 52.499 5.53858 51.0308 5.39643H49.5625ZM45.3943 2.00962V17.4524H49.5625V12.4313L53.1153 17.4524H58.0419L53.6609 11.2712C58.7296 8.80793 56.8349 2.08112 51.5057 2.01047L45.3943 2.00962ZM64.6734 9.73063C66.0471 9.73063 67.1596 10.7724 67.1596 12.0517C67.1596 13.3302 66.0463 14.3729 64.6734 14.3729C63.3234 14.3729 62.2101 13.3302 62.2101 12.0517C62.2101 10.7724 63.3234 9.73063 64.6734 9.73063ZM63.7966 6.31996C64.9338 6.31996 65.9995 6.69873 66.8753 7.31413V6.72256H70.949L70.9729 17.4516H66.8515L66.8753 16.7885C65.9995 17.4039 64.9338 17.7597 63.7966 17.7597C60.7648 17.7597 58.2785 15.2019 58.2785 12.0517C58.2785 8.90156 60.7656 6.31996 63.7966 6.31996ZM73.1289 6.72256H77.4631V17.4516H73.1289V6.72256ZM75.3071 0.588164C76.5634 0.588164 77.5814 1.63 77.5814 2.88548C77.5814 4.14096 76.5634 5.18279 75.3071 5.18279C74.0286 5.18279 73.0097 4.1401 73.0097 2.88548C73.0106 1.63085 74.0286 0.588164 75.3071 0.588164ZM108.206 6.72256H112.54V17.4516H108.206V6.72256ZM110.361 0.588164C111.64 0.588164 112.658 1.63 112.658 2.88548C112.658 4.14096 111.64 5.18279 110.361 5.18279C109.105 5.18279 108.087 4.1401 108.087 2.88548C108.087 1.63085 109.105 0.588164 110.361 0.588164ZM78.2683 6.72256V10.1332H79.7604V17.4516H83.9533V10.1332H87.8848V17.4516H92.219V10.0864H94.9189V6.77023H92.0998V4.37843C92.0292 3.50258 94.0899 3.14679 94.8006 3.85751V0.351538C90.8214 -0.903941 87.6005 1.34656 87.6235 4.82785V6.72256H83.9286V4.37843C83.8809 3.50258 85.682 3.14679 86.723 3.85751V0.351538C83.2647 -0.666464 79.5706 1.0146 79.5944 4.80402V6.69873L78.2683 6.72256ZM101.1 17.7597C104.819 17.7359 106.192 16.1969 106.998 13.9464H103.232C101.527 16.1254 99.0394 14.5388 99.1586 12.7625H107.117C107.117 8.40448 104.795 6.34379 101.101 6.34379C97.4069 6.34379 95.0857 8.94923 95.0857 12.1232C95.0857 15.2972 97.7848 17.7835 101.1 17.7597ZM99.7025 10.2285C99.7502 8.9254 102.592 8.9254 102.781 10.2285H99.7025ZM130.611 17.7597C134.353 17.7359 135.728 16.1969 136.532 13.9464H132.742C131.038 16.1254 128.55 14.5388 128.67 12.7625H136.628C136.628 8.40448 134.331 6.34379 130.612 6.34379C126.917 6.34379 124.597 8.94923 124.597 12.1232C124.597 15.2972 127.295 17.7835 130.611 17.7597ZM129.214 10.2285C129.261 8.9254 132.103 8.9254 132.292 10.2285H129.214ZM123.459 6.93621L122.179 9.54164C120.569 9.04371 119.005 9.13904 119.053 9.58846C119.101 9.87273 118.84 10.3698 121.35 10.7256C125.092 11.3172 124.785 18.2806 118.508 17.7597C116.78 17.6414 115.382 17.1911 114.222 16.5042L115.619 13.709C117.586 14.6801 119.48 15.2487 119.622 14.2775C119.788 13.0697 117.561 13.4962 116.211 12.4773C113.795 10.9852 115.168 6.36677 119.125 6.31911C120.521 6.22548 121.967 6.4621 123.459 6.93621ZM138.285 6.72256V17.4516H142.336V10.8907C142.454 9.2565 145.675 8.97221 145.699 10.8907V17.4516H149.796V10.7256C149.701 6.96004 145.746 5.13598 142.169 7.52777V6.72256H138.285ZM47.7861 24.0124L45.0862 39.9285H52.7365C57.9236 39.9285 60.0549 33.4868 56.36 31.284C59.5101 28.3704 57.8997 23.9894 54.5129 23.9417L47.7861 24.0124ZM50.8886 33.5098L50.3439 36.1391H52.1203C54.1333 36.2335 53.8967 33.5098 52.7365 33.5098H50.8886ZM51.7883 27.8018L51.3389 29.934L51.8836 29.957C53.5179 30.0515 54.4652 27.8018 52.499 27.8018H51.7883ZM58.0887 39.9523H62.731L64.1286 37.1571H69.3863L70.1677 40H74.4542L70.7363 24.1069H66.3544L58.0887 39.9523ZM65.6445 33.8179H68.5343L67.6108 29.625L65.6445 33.8179ZM75.9233 40H80.2107L81.2993 30.0285L87.4337 39.9523H92.0283L93.9469 24.0115H89.6604L88.4526 33.983L82.3173 23.9639H77.8887L75.9233 40ZM97.0264 23.9647L94.0184 39.9523H98.5424L99.7502 33.983L103.8 39.9523H109.745L103.942 31.5674L111.356 23.9409H105.6L100.532 29.5774L101.337 23.9409L97.0264 23.9647Z" fill="#E9E9E9"/>
</svg>
