<svg width="114" height="40" viewBox="0 0 114 40" fill="none" xmlns="http://www.w3.org/2000/svg">
<path d="M52.4201 37.9756L35.9435 24.0063L45.6145 23.2899L52.4201 28.3045C63.882 17.9171 86.8059 -1.06663 114.028 3.2315C86.8059 -0.350318 57.0765 34.0355 52.4201 37.9756Z" fill="white"/>
<path d="M6.8613 0.904907V21.7747H2.51697V0.904907H6.8613Z" fill="#A6A6A6"/>
<path d="M18.2986 0.535706C21.2327 0.535706 23.7219 1.28343 25.7664 2.77887L23.6936 6.44178C21.971 5.11671 20.1633 4.45421 18.2703 4.45421C17.3049 4.45421 16.5192 4.65294 15.9135 5.05047C15.3267 5.448 15.0333 6.00636 15.0333 6.72573C15.0333 7.36932 15.2983 7.88042 15.8283 8.25906C16.3584 8.6187 17.3711 8.95944 18.8665 9.28119C21.4978 9.81129 23.3434 10.5589 24.4034 11.5243C25.4635 12.4709 25.9935 13.7675 25.9935 15.4144C25.9935 17.4588 25.2837 19.0962 23.864 20.3266C22.4442 21.5381 20.5134 22.1439 18.0715 22.1439C14.8345 22.1439 12.1371 21.2164 9.97913 19.3612L12.3359 15.7835C13.0362 16.5218 13.9259 17.118 15.0049 17.5723C16.0839 18.0078 17.1534 18.2255 18.2135 18.2255C19.3114 18.2255 20.1537 18.0172 20.7406 17.6008C21.3463 17.1844 21.6492 16.5975 21.6492 15.8403C21.6492 15.1967 21.3463 14.6761 20.7406 14.2786C20.1537 13.8622 19.1126 13.5025 17.6172 13.1996C15.0428 12.6507 13.235 11.8841 12.1938 10.8997C11.1717 9.89643 10.6606 8.59025 10.6606 6.98124C10.6606 5.10725 11.3704 3.56448 12.7902 2.35299C14.2288 1.1415 16.0649 0.535706 18.2986 0.535706Z" fill="#A6A6A6"/>
<path d="M39.1562 0.535706C42.2228 0.535706 44.7783 1.56738 46.8227 3.63072C48.867 5.67516 49.8893 8.25906 49.8893 11.3824C49.8893 14.4869 48.867 17.0612 46.8227 19.1057C44.7783 21.1311 42.2228 22.1439 39.1562 22.1439C36.0707 22.1439 33.5057 21.1311 31.4613 19.1057C29.4359 17.0612 28.4231 14.4869 28.4231 11.3824C28.4231 8.25906 29.4359 5.67516 31.4613 3.63072C33.5057 1.56738 36.0707 0.535706 39.1562 0.535706ZM43.6992 6.44178C42.5256 5.1546 41.0113 4.51092 39.1562 4.51092C37.3011 4.51092 35.7773 5.1546 34.5847 6.44178C33.4111 7.71006 32.8243 9.35697 32.8243 11.3824C32.8243 13.3511 33.4111 14.979 34.5847 16.2663C35.7773 17.5345 37.3011 18.1687 39.1562 18.1687C40.9923 18.1687 42.4973 17.5345 43.6709 16.2663C44.8635 14.979 45.4597 13.3511 45.4597 11.3824C45.4597 9.37587 44.8729 7.72896 43.6992 6.44178Z" fill="#A6A6A6"/>
<path d="M6.18045 28.9017C7.67589 28.9017 8.92049 29.4081 9.91436 30.4208L8.9915 31.4714C8.23432 30.648 7.2973 30.2363 6.18045 30.2363C5.08254 30.2363 4.18339 30.6196 3.48299 31.3863C2.7826 32.1529 2.4324 33.1278 2.4324 34.3109C2.4324 35.4845 2.7826 36.4546 3.48299 37.2213C4.18339 37.988 5.08254 38.3713 6.18045 38.3713C7.34463 38.3713 8.3053 37.9358 9.06251 37.0651L9.97115 38.1441C9.01517 39.1852 7.75161 39.7058 6.18045 39.7058C4.67556 39.7058 3.43094 39.1947 2.4466 38.1725C1.46226 37.1503 0.970093 35.8631 0.970093 34.3109C0.970093 32.7491 1.46226 31.4572 2.4466 30.4351C3.43094 29.4128 4.67556 28.9017 6.18045 28.9017Z" fill="#A6A6A6"/>
<path d="M18.4836 29.0863V30.4208H13.472V33.5868H17.8731V34.8787H13.472V38.1867H18.5972V39.5212H12.0239V29.0863H18.4836Z" fill="#A6A6A6"/>
<path d="M28.5373 39.5212H26.8337L24.3917 35.5602H24.3634H22.3474V39.5212H20.8993V29.0863H24.3634C25.4329 29.0863 26.3132 29.3749 27.0041 29.9523C27.695 30.5202 28.0404 31.3105 28.0404 32.3232C28.0404 33.0615 27.8512 33.6862 27.4725 34.1973C27.094 34.7083 26.5781 35.0775 25.9251 35.3047L28.5373 39.5212ZM22.3474 30.364V34.2825H24.2356C24.9644 34.2825 25.537 34.1169 25.9534 33.7856C26.3699 33.4448 26.5781 32.9574 26.5781 32.3232C26.5781 31.6986 26.3652 31.2159 25.9393 30.8751C25.5228 30.5344 24.955 30.364 24.2356 30.364H22.3474Z" fill="#A6A6A6"/>
<path d="M38.3195 29.0863V30.3783H34.6567V39.5212H33.2086V30.3783H29.5599V29.0863H38.3195Z" fill="#A6A6A6"/>
<path d="M41.8747 29.0863V39.5212H40.4266V29.0863H41.8747Z" fill="#A6A6A6"/>
<path d="M51.1543 29.0863V30.4208H46.3557V33.7288H50.4161V35.0349H46.3557V39.5212H44.9076V29.0863H51.1543Z" fill="#A6A6A6"/>
<path d="M54.7188 29.0863V39.5212H53.2706V29.0863H54.7188Z" fill="#A6A6A6"/>
<path d="M64.2113 29.0863V30.4208H59.1997V33.5868H63.6009V34.8787H59.1997V38.1867H64.3249V39.5212H57.7516V29.0863H64.2113Z" fill="#A6A6A6"/>
<path d="M69.8071 29.0863C71.5676 29.0863 72.94 29.5453 73.9243 30.4634C74.9181 31.372 75.415 32.6498 75.415 34.2967C75.415 35.9435 74.9229 37.226 73.9386 38.1441C72.9541 39.0622 71.577 39.5212 69.8071 39.5212H66.6554V29.0863H69.8071ZM69.7645 30.435H68.1035V38.1867H69.7645C71.1085 38.1867 72.1402 37.8507 72.8595 37.1787C73.5883 36.4972 73.9527 35.5365 73.9527 34.2967C73.9527 33.0757 73.5883 32.1292 72.8595 31.4572C72.1307 30.7758 71.0991 30.435 69.7645 30.435Z" fill="#A6A6A6"/>
<path d="M57.5022 1.7948C58.8288 1.7948 59.9277 2.7947 59.9277 4.2104C59.9277 4.7747 59.7594 5.2697 59.4624 5.6657L59.4525 5.6855L57.1953 9.2H55.839L57.4923 6.6359C56.1459 6.6359 55.047 5.6162 55.047 4.2104C55.047 2.7947 56.1558 1.7948 57.5022 1.7948ZM57.5022 2.864C56.8092 2.864 56.2746 3.3986 56.2746 4.2104C56.2746 5.0222 56.8092 5.5667 57.5022 5.5667C58.1853 5.5667 58.71 5.0222 58.71 4.2104C58.71 3.3986 58.1853 2.864 57.5022 2.864Z" fill="#A6A6A6"/>
<path d="M63.1621 1.7948C64.7956 1.7948 65.7461 3.26 65.7461 5.5568C65.7461 7.8635 64.7956 9.3287 63.1621 9.3287C61.5286 9.3287 60.5782 7.8635 60.5782 5.5568C60.5782 3.26 61.5286 1.7948 63.1621 1.7948ZM63.1621 2.864C62.2315 2.864 61.796 3.9332 61.796 5.5568C61.796 7.1903 62.2315 8.2595 63.1621 8.2595C64.0927 8.2595 64.5283 7.1903 64.5283 5.5568C64.5283 3.9332 64.0927 2.864 63.1621 2.864Z" fill="#A6A6A6"/>
<path d="M69.0209 1.7948C70.6544 1.7948 71.6048 3.26 71.6048 5.5568C71.6048 7.8635 70.6544 9.3287 69.0209 9.3287C67.3874 9.3287 66.437 7.8635 66.437 5.5568C66.437 3.26 67.3874 1.7948 69.0209 1.7948ZM69.0209 2.864C68.0903 2.864 67.6547 3.9332 67.6547 5.5568C67.6547 7.1903 68.0903 8.2595 69.0209 8.2595C69.9515 8.2595 70.3871 7.1903 70.3871 5.5568C70.3871 3.9332 69.9515 2.864 69.0209 2.864Z" fill="#A6A6A6"/>
<path d="M74.9985 1.7948V9.2H73.8006V3.8936L72.6126 4.5668L72.0978 3.4877L74.9589 1.7948H74.9985Z" fill="#A6A6A6"/>
<path d="M57.3339 12.5948C58.71 12.5948 59.6307 13.5155 59.6307 14.8223C59.6307 15.6836 59.3436 16.2875 58.7991 17.0003L57.3339 18.9209H59.7099V20H55.146V19.9406L57.7893 16.3766C58.2645 15.743 58.4229 15.3767 58.4229 14.7926C58.4229 14.0897 57.9576 13.6739 57.3339 13.6739C56.6706 13.6739 56.3043 14.0501 56.1657 14.8322L55.0767 14.5748C55.3341 13.2581 56.1063 12.5948 57.3339 12.5948Z" fill="#A6A6A6"/>
<path d="M62.9495 12.5948C64.583 12.5948 65.5334 14.06 65.5334 16.3568C65.5334 18.6635 64.583 20.1287 62.9495 20.1287C61.316 20.1287 60.3656 18.6635 60.3656 16.3568C60.3656 14.06 61.316 12.5948 62.9495 12.5948ZM62.9495 13.664C62.0189 13.664 61.5833 14.7332 61.5833 16.3568C61.5833 17.9903 62.0189 19.0595 62.9495 19.0595C63.8801 19.0595 64.3157 17.9903 64.3157 16.3568C64.3157 14.7332 63.8801 13.664 62.9495 13.664Z" fill="#A6A6A6"/>
<path d="M68.9269 12.5948V20H67.7291V14.6936L66.5411 15.3668L66.0262 14.2877L68.8873 12.5948H68.9269Z" fill="#A6A6A6"/>
<path d="M74.3499 12.7235V13.8026H71.6175V15.6242C71.8254 15.5351 72.0828 15.4559 72.4293 15.4559C73.7757 15.4559 74.7954 16.2677 74.7954 17.8121C74.7954 19.1387 73.8846 20.1287 72.4293 20.1287C71.2017 20.1287 70.4196 19.5743 70.0533 18.5249L71.073 18.0398C71.2512 18.6833 71.667 19.0496 72.3501 19.0496C73.0728 19.0496 73.5876 18.515 73.5876 17.7626C73.5876 17.0003 73.0827 16.4954 72.3501 16.4954C71.8254 16.4954 71.4591 16.7033 71.2017 16.9112L70.4097 16.5449V12.7235H74.3499Z" fill="#A6A6A6"/>
</svg>
