<svg width="114" height="40" viewBox="0 0 114 40" fill="none" xmlns="http://www.w3.org/2000/svg">
<path d="M52.2703 37.9756L35.7938 24.0063L45.4648 23.2899L52.2703 28.3045C63.7323 17.9171 86.6562 -1.06663 113.878 3.2315C86.6562 -0.350318 56.9268 34.0355 52.2703 37.9756Z" fill="white"/>
<path d="M6.71152 0.904907V21.7747H2.36719V0.904907H6.71152Z" fill="#A6A6A6"/>
<path d="M18.1489 0.535706C21.083 0.535706 23.5722 1.28343 25.6167 2.77887L23.5439 6.44178C21.8213 5.11671 20.0135 4.45421 18.1206 4.45421C17.1551 4.45421 16.3695 4.65294 15.7638 5.05047C15.177 5.448 14.8836 6.00636 14.8836 6.72573C14.8836 7.36932 15.1486 7.88042 15.6786 8.25906C16.2087 8.6187 17.2214 8.95944 18.7168 9.28119C21.3481 9.81129 23.1937 10.5589 24.2537 11.5243C25.3138 12.4709 25.8438 13.7675 25.8438 15.4144C25.8438 17.4588 25.1339 19.0962 23.7142 20.3266C22.2945 21.5381 20.3637 22.1439 17.9218 22.1439C14.6848 22.1439 11.9873 21.2164 9.82941 19.3612L12.1861 15.7835C12.8865 16.5218 13.7762 17.118 14.8552 17.5723C15.9342 18.0078 17.0037 18.2255 18.0638 18.2255C19.1617 18.2255 20.004 18.0172 20.5909 17.6008C21.1966 17.1844 21.4994 16.5975 21.4994 15.8403C21.4994 15.1967 21.1966 14.6761 20.5909 14.2786C20.004 13.8622 18.9629 13.5025 17.4674 13.1996C14.8931 12.6507 13.0852 11.8841 12.0441 10.8997C11.0219 9.89643 10.5109 8.59025 10.5109 6.98124C10.5109 5.10725 11.2207 3.56448 12.6405 2.35299C14.0791 1.1415 15.9152 0.535706 18.1489 0.535706Z" fill="#A6A6A6"/>
<path d="M39.0063 0.535706C42.073 0.535706 44.6284 1.56738 46.6729 3.63072C48.7172 5.67516 49.7394 8.25906 49.7394 11.3824C49.7394 14.4869 48.7172 17.0612 46.6729 19.1057C44.6284 21.1311 42.073 22.1439 39.0063 22.1439C35.9208 22.1439 33.3558 21.1311 31.3115 19.1057C29.286 17.0612 28.2733 14.4869 28.2733 11.3824C28.2733 8.25906 29.286 5.67516 31.3115 3.63072C33.3558 1.56738 35.9208 0.535706 39.0063 0.535706ZM43.5494 6.44178C42.3758 5.1546 40.8615 4.51092 39.0063 4.51092C37.1512 4.51092 35.6274 5.1546 34.4348 6.44178C33.2612 7.71006 32.6744 9.35697 32.6744 11.3824C32.6744 13.3511 33.2612 14.979 34.4348 16.2663C35.6274 17.5345 37.1512 18.1687 39.0063 18.1687C40.8425 18.1687 42.3474 17.5345 43.5211 16.2663C44.7136 14.979 45.3099 13.3511 45.3099 11.3824C45.3099 9.37587 44.7231 7.72896 43.5494 6.44178Z" fill="#A6A6A6"/>
<path d="M6.03068 28.9017C7.52612 28.9017 8.77074 29.4081 9.76458 30.4208L8.84172 31.4714C8.08454 30.648 7.14752 30.2363 6.03068 30.2363C4.93276 30.2363 4.03361 30.6196 3.33322 31.3863C2.63282 32.1529 2.28262 33.1278 2.28262 34.3109C2.28262 35.4845 2.63282 36.4546 3.33322 37.2213C4.03361 37.988 4.93276 38.3713 6.03068 38.3713C7.19485 38.3713 8.15552 37.9358 8.91271 37.0651L9.82137 38.1441C8.86538 39.1852 7.60184 39.7058 6.03068 39.7058C4.52578 39.7058 3.28116 39.1947 2.29682 38.1725C1.31248 37.1503 0.820312 35.8631 0.820312 34.3109C0.820312 32.7491 1.31248 31.4572 2.29682 30.4351C3.28116 29.4128 4.52578 28.9017 6.03068 28.9017Z" fill="#A6A6A6"/>
<path d="M18.3339 29.0863V30.4208H13.3223V33.5868H17.7234V34.8787H13.3223V38.1867H18.4474V39.5212H11.8742V29.0863H18.3339Z" fill="#A6A6A6"/>
<path d="M28.3875 39.5212H26.6839L24.242 35.5602H24.2136H22.1976V39.5212H20.7495V29.0863H24.2136C25.2831 29.0863 26.1634 29.3749 26.8543 29.9523C27.5452 30.5202 27.8907 31.3105 27.8907 32.3232C27.8907 33.0615 27.7014 33.6862 27.3228 34.1973C26.9442 34.7083 26.4283 35.0775 25.7753 35.3047L28.3875 39.5212ZM22.1976 30.364V34.2825H24.0858C24.8146 34.2825 25.3872 34.1169 25.8036 33.7856C26.2202 33.4448 26.4283 32.9574 26.4283 32.3232C26.4283 31.6986 26.2154 31.2159 25.7895 30.8751C25.373 30.5344 24.8052 30.364 24.0858 30.364H22.1976Z" fill="#A6A6A6"/>
<path d="M38.1698 29.0863V30.3783H34.5069V39.5212H33.0588V30.3783H29.4102V29.0863H38.1698Z" fill="#A6A6A6"/>
<path d="M41.725 29.0863V39.5212H40.2769V29.0863H41.725Z" fill="#A6A6A6"/>
<path d="M51.0045 29.0863V30.4208H46.2059V33.7288H50.2663V35.0349H46.2059V39.5212H44.7578V29.0863H51.0045Z" fill="#A6A6A6"/>
<path d="M54.569 29.0863V39.5212H53.1208V29.0863H54.569Z" fill="#A6A6A6"/>
<path d="M64.0616 29.0863V30.4208H59.0499V33.5868H63.4511V34.8787H59.0499V38.1867H64.1751V39.5212H57.6018V29.0863H64.0616Z" fill="#A6A6A6"/>
<path d="M69.6573 29.0863C71.4178 29.0863 72.7902 29.5453 73.7746 30.4634C74.7683 31.372 75.2652 32.6498 75.2652 34.2967C75.2652 35.9435 74.7731 37.226 73.7888 38.1441C72.8044 39.0622 71.4273 39.5212 69.6573 39.5212H66.5056V29.0863H69.6573ZM69.6148 30.435H67.9537V38.1867H69.6148C70.9587 38.1867 71.9904 37.8507 72.7098 37.1787C73.4385 36.4972 73.8029 35.5365 73.8029 34.2967C73.8029 33.0757 73.4385 32.1292 72.7098 31.4572C71.9809 30.7758 70.9493 30.435 69.6148 30.435Z" fill="#A6A6A6"/>
<path d="M56.2841 1.7948C57.6602 1.7948 58.5809 2.7155 58.5809 4.0223C58.5809 4.8836 58.2938 5.4875 57.7493 6.2003L56.2841 8.1209H58.6601V9.2H54.0962V9.1406L56.7395 5.5766C57.2147 4.943 57.3731 4.5767 57.3731 3.9926C57.3731 3.2897 56.9078 2.8739 56.2841 2.8739C55.6208 2.8739 55.2545 3.2501 55.1159 4.0322L54.0269 3.7748C54.2843 2.4581 55.0565 1.7948 56.2841 1.7948Z" fill="#A6A6A6"/>
<path d="M64.2459 1.92352V1.98292L60.6621 9.20002H59.3553L62.4738 3.02242H59.2266V1.92352H64.2459Z" fill="#A6A6A6"/>
<path d="M67.2653 1.7948C68.8988 1.7948 69.8492 3.26 69.8492 5.5568C69.8492 7.8635 68.8988 9.3287 67.2653 9.3287C65.6318 9.3287 64.6814 7.8635 64.6814 5.5568C64.6814 3.26 65.6318 1.7948 67.2653 1.7948ZM67.2653 2.864C66.3347 2.864 65.8991 3.9332 65.8991 5.5568C65.8991 7.1903 66.3347 8.2595 67.2653 8.2595C68.1959 8.2595 68.6315 7.1903 68.6315 5.5568C68.6315 3.9332 68.1959 2.864 67.2653 2.864Z" fill="#A6A6A6"/>
<path d="M73.1241 1.7948C74.7576 1.7948 75.708 3.26 75.708 5.5568C75.708 7.8635 74.7576 9.3287 73.1241 9.3287C71.4906 9.3287 70.5402 7.8635 70.5402 5.5568C70.5402 3.26 71.4906 1.7948 73.1241 1.7948ZM73.1241 2.864C72.1935 2.864 71.7579 3.9332 71.7579 5.5568C71.7579 7.1903 72.1935 8.2595 73.1241 8.2595C74.0547 8.2595 74.4903 7.1903 74.4903 5.5568C74.4903 3.9332 74.0547 2.864 73.1241 2.864Z" fill="#A6A6A6"/>
<path d="M79.1017 1.7948V9.2H77.9038V3.8936L76.7158 4.5668L76.201 3.4877L79.0621 1.7948H79.1017Z" fill="#A6A6A6"/>
<path d="M56.2841 12.5948C57.6602 12.5948 58.5809 13.5155 58.5809 14.8223C58.5809 15.6836 58.2938 16.2875 57.7493 17.0003L56.2841 18.9209H58.6601V20H54.0962V19.9406L56.7395 16.3766C57.2147 15.743 57.3731 15.3767 57.3731 14.7926C57.3731 14.0897 56.9078 13.6739 56.2841 13.6739C55.6208 13.6739 55.2545 14.0501 55.1159 14.8322L54.0269 14.5748C54.2843 13.2581 55.0565 12.5948 56.2841 12.5948Z" fill="#A6A6A6"/>
<path d="M61.8996 12.5948C63.5331 12.5948 64.4835 14.06 64.4835 16.3568C64.4835 18.6635 63.5331 20.1287 61.8996 20.1287C60.2661 20.1287 59.3157 18.6635 59.3157 16.3568C59.3157 14.06 60.2661 12.5948 61.8996 12.5948ZM61.8996 13.664C60.969 13.664 60.5334 14.7332 60.5334 16.3568C60.5334 17.9903 60.969 19.0595 61.8996 19.0595C62.8302 19.0595 63.2658 17.9903 63.2658 16.3568C63.2658 14.7332 62.8302 13.664 61.8996 13.664Z" fill="#A6A6A6"/>
<path d="M67.8772 12.5948V20H66.6793V14.6936L65.4913 15.3668L64.9765 14.2877L67.8376 12.5948H67.8772Z" fill="#A6A6A6"/>
<path d="M71.231 12.5948C72.5576 12.5948 73.4486 13.4957 73.4486 14.7233C73.4486 15.5054 73.0625 15.9707 72.5378 16.238C73.2011 16.5152 73.6466 17.0795 73.6466 17.8913C73.6466 19.2179 72.7259 20.1287 71.3003 20.1287C70.0034 20.1287 69.2411 19.4555 68.9045 18.218L69.9935 17.9408C70.1816 18.6338 70.5479 19.0496 71.2904 19.0496C71.9735 19.0496 72.4388 18.5942 72.4388 17.8814C72.4388 17.2181 71.9339 16.7429 71.2112 16.7429H70.4291V15.743H71.231C71.7656 15.7331 72.2507 15.3866 72.2507 14.7233C72.2507 14.0798 71.8151 13.6739 71.2211 13.6739C70.637 13.6739 70.2509 14.0303 70.0826 14.6441L69.0332 14.2085C69.3599 13.2383 70.0826 12.5948 71.231 12.5948Z" fill="#A6A6A6"/>
</svg>
