<svg width="24" height="24" viewBox="0 0 24 24" fill="none" xmlns="http://www.w3.org/2000/svg">
<g clip-path="url(#clip0_242_1188)">
<path d="M23.4945 6.2234C23.358 5.71602 23.0905 5.25339 22.719 4.88185C22.3474 4.51031 21.8847 4.24286 21.3774 4.10629C19.5088 3.60059 12.0004 3.60059 12.0004 3.60059C12.0004 3.60059 4.49195 3.60059 2.62341 4.10629C2.11602 4.24286 1.65341 4.51031 1.28187 4.88185C0.910319 5.25339 0.642877 5.71602 0.506305 6.2234C0.157407 8.12903 -0.0119037 10.0632 0.000599156 12.0004C-0.0119037 13.9377 0.157407 15.8719 0.506305 17.7775C0.642877 18.2849 0.910319 18.7475 1.28187 19.119C1.65341 19.4906 2.11602 19.758 2.62341 19.8945C4.49195 20.4003 12.0004 20.4003 12.0004 20.4003C12.0004 20.4003 19.5088 20.4003 21.3774 19.8945C21.8847 19.758 22.3474 19.4906 22.719 19.119C23.0905 18.7475 23.358 18.2849 23.4945 17.7775C23.8434 15.8719 24.0127 13.9377 24.0002 12.0004C24.0127 10.0632 23.8434 8.12903 23.4945 6.2234ZM9.60043 15.6003V8.4005L15.8318 12.0004L9.60043 15.6003Z" fill="#8D8D90"/>
</g>
<defs>
<clipPath id="clip0_242_1188">
<rect width="24" height="24" fill="white"/>
</clipPath>
</defs>
</svg>
